<svg xmlns="http://www.w3.org/2000/svg" xmlns:xlink="http://www.w3.org/1999/xlink" width="46.305" height="46.305" viewBox="0 0 46.305 46.305">
  <defs>
    <linearGradient id="linear-gradient" y1="0.5" x2="1" y2="0.5" gradientUnits="objectBoundingBox">
      <stop offset="0" stop-color="#fff"/>
      <stop offset="1" stop-color="#d1d3d4"/>
    </linearGradient>
    <linearGradient id="linear-gradient-2" y1="0.5" x2="1" y2="0.5" gradientUnits="objectBoundingBox">
      <stop offset="0" stop-color="#d1d3d4"/>
      <stop offset="1" stop-color="#fff"/>
    </linearGradient>
  </defs>
  <g id="Group_165" data-name="Group 165" transform="translate(-1856.328 -387.8)">
    <circle id="Ellipse_1262" data-name="Ellipse 1262" cx="23.153" cy="23.153" r="23.153" transform="translate(1856.328 387.8)" fill="url(#linear-gradient)"/>
    <ellipse id="Ellipse_1263" data-name="Ellipse 1263" cx="21.995" cy="21.995" rx="21.995" ry="21.995" transform="translate(1857.485 388.958)" fill="url(#linear-gradient-2)"/>
    <g id="Group_153" data-name="Group 153" transform="translate(1862.405 393.878)">
      <ellipse id="Ellipse_25" data-name="Ellipse 25" cx="17.365" cy="17.365" rx="17.365" ry="17.365" transform="translate(4.461 4.461)" fill="#fff" opacity="0"/>
      <circle id="Ellipse_26" data-name="Ellipse 26" cx="17.346" cy="17.346" r="17.346" transform="translate(4.182 4.182)" fill="#f7f7f7" opacity="0.063"/>
      <ellipse id="Ellipse_27" data-name="Ellipse 27" cx="17.328" cy="17.328" rx="17.328" ry="17.328" transform="translate(3.903 3.903)" fill="#efeff0" opacity="0.125"/>
      <circle id="Ellipse_28" data-name="Ellipse 28" cx="17.31" cy="17.31" r="17.31" transform="translate(3.625 3.625)" fill="#e7e8e8" opacity="0.188"/>
      <circle id="Ellipse_29" data-name="Ellipse 29" cx="17.292" cy="17.292" r="17.292" transform="translate(3.346 3.346)" fill="#dfe0e1" opacity="0.25"/>
      <circle id="Ellipse_30" data-name="Ellipse 30" cx="17.274" cy="17.274" r="17.274" transform="translate(3.067 3.067)" fill="#d7d8d9" opacity="0.313"/>
      <circle id="Ellipse_31" data-name="Ellipse 31" cx="17.256" cy="17.256" r="17.256" transform="translate(2.788 2.788)" fill="#cfd0d1" opacity="0.375"/>
      <ellipse id="Ellipse_32" data-name="Ellipse 32" cx="17.238" cy="17.238" rx="17.238" ry="17.238" transform="translate(2.509 2.509)" fill="#c7c8ca" opacity="0.438"/>
      <circle id="Ellipse_33" data-name="Ellipse 33" cx="17.22" cy="17.22" r="17.22" transform="translate(2.23 2.23)" fill="#c0c1c2" opacity="0.5"/>
      <circle id="Ellipse_34" data-name="Ellipse 34" cx="17.202" cy="17.202" r="17.202" transform="translate(1.952 1.952)" fill="#b8b9ba" opacity="0.563"/>
      <ellipse id="Ellipse_35" data-name="Ellipse 35" cx="17.184" cy="17.184" rx="17.184" ry="17.184" transform="translate(1.673 1.673)" fill="#b0b1b3" opacity="0.625"/>
      <ellipse id="Ellipse_36" data-name="Ellipse 36" cx="17.166" cy="17.166" rx="17.166" ry="17.166" transform="translate(1.394 1.394)" fill="#a8a9ab" opacity="0.688"/>
      <ellipse id="Ellipse_37" data-name="Ellipse 37" cx="17.147" cy="17.147" rx="17.147" ry="17.147" transform="translate(1.115 1.115)" fill="#a0a1a4" opacity="0.75"/>
      <circle id="Ellipse_38" data-name="Ellipse 38" cx="17.129" cy="17.129" r="17.129" transform="translate(0.836 0.836)" fill="#98999c" opacity="0.813"/>
      <circle id="Ellipse_39" data-name="Ellipse 39" cx="17.111" cy="17.111" r="17.111" transform="translate(0.558 0.558)" fill="#909294" opacity="0.875"/>
      <ellipse id="Ellipse_40" data-name="Ellipse 40" cx="17.093" cy="17.093" rx="17.093" ry="17.093" transform="translate(0.279 0.279)" fill="#888a8d" opacity="0.938"/>
      <circle id="Ellipse_41" data-name="Ellipse 41" cx="17.075" cy="17.075" r="17.075" fill="#808285"/>
    </g>
    <ellipse id="Ellipse_1264" data-name="Ellipse 1264" cx="17.365" cy="17.365" rx="17.365" ry="17.365" transform="translate(1862.116 393.588)" fill="#2e4442"/>
    <ellipse id="Ellipse_1265" data-name="Ellipse 1265" cx="14.47" cy="14.47" rx="14.47" ry="14.47" transform="translate(1865.01 396.482)" fill="#2e4442"/>
    <g id="Group_158" data-name="Group 158" transform="translate(1873.217 404.69)">
      <g id="Group_154" data-name="Group 154" transform="translate(0 0)">
        <path id="Path_119" data-name="Path 119" d="M148.542,144H144v4.542l1.363-1.363,2.271,2.271,1.817-1.817-2.271-2.271Z" transform="translate(-144 -144)" fill="#fff"/>
      </g>
      <g id="Group_155" data-name="Group 155" transform="translate(7.268 7.268)">
        <path id="Path_120" data-name="Path 120" d="M272.909,277.451h4.542v-4.542l-1.363,1.362L273.817,272,272,273.817l2.271,2.271Z" transform="translate(-272 -272)" fill="#fff"/>
      </g>
      <g id="Group_156" data-name="Group 156" transform="translate(7.268 0)">
        <path id="Path_121" data-name="Path 121" d="M277.451,148.542V144h-4.542l1.362,1.363L272,147.634l1.817,1.817,2.271-2.271Z" transform="translate(-272 -144)" fill="#fff"/>
      </g>
      <g id="Group_157" data-name="Group 157" transform="translate(0 7.268)">
        <path id="Path_122" data-name="Path 122" d="M144,272.909v4.542h4.542l-1.363-1.363,2.271-2.271L147.634,272l-2.271,2.271Z" transform="translate(-144 -272)" fill="#fff"/>
      </g>
    </g>
  </g>
</svg>
