<svg xmlns="http://www.w3.org/2000/svg" width="42" height="41" viewBox="0 0 42 41">
  <g id="Group_208" data-name="Group 208" transform="translate(-1866 -89)">
    <g id="Circle" transform="translate(1867 90)" fill="#fff">
      <path d="M 20 39.5 C 17.23428916931152 39.5 14.55093955993652 38.97172164916992 12.02447986602783 37.92982864379883 C 9.583649635314941 36.92325973510742 7.391459941864014 35.48215866088867 5.508820056915283 33.64657974243164 C 3.625289916992188 31.81014060974121 2.146320104598999 29.67123031616211 1.11300003528595 27.28927040100098 C 0.04269000142812729 24.82202911376953 -0.5 22.20134925842285 -0.5 19.5 C -0.5 16.79865074157715 0.04269000142812729 14.17796993255615 1.11300003528595 11.71072959899902 C 2.146320104598999 9.328769683837891 3.625289916992188 7.189859867095947 5.508820056915283 5.353419780731201 C 7.391459941864014 3.517839908599854 9.583649635314941 2.076740026473999 12.02447986602783 1.070170044898987 C 14.55093955993652 0.02827999927103519 17.23428916931152 -0.5 20 -0.5 C 22.76571083068848 -0.5 25.44906044006348 0.02827999927103519 27.97553062438965 1.070170044898987 C 30.41634941101074 2.076740026473999 32.60853958129883 3.517839908599854 34.49119186401367 5.353419780731201 C 36.37472152709961 7.189859867095947 37.85367965698242 9.328769683837891 38.88700103759766 11.71072959899902 C 39.95730972290039 14.17796993255615 40.5 16.79865074157715 40.5 19.5 C 40.5 22.9377498626709 39.58626174926758 26.32361030578613 37.85755157470703 29.29153060913086 C 36.17160034179688 32.18603897094727 33.71030044555664 34.6921501159668 30.7397403717041 36.53889846801758 C 27.67591094970703 38.44829177856445 23.86162948608398 39.5 20 39.5 Z" stroke="none"/>
      <path d="M 20 0 C 8.954299926757813 0 0 8.730449676513672 0 19.5 C 0 30.26955032348633 8.954299926757813 39 20 39 C 23.95441055297852 39 27.64076995849609 37.88103866577148 30.47574996948242 36.1142692565918 C 36.30941009521484 32.48757171630859 40 26.41399955749512 40 19.5 C 40 8.730449676513672 31.04570007324219 0 20 0 M 20 -1 C 22.83143997192383 -1 25.57892036437988 -0.4590110778808594 28.1661491394043 0.6079292297363281 C 30.66621971130371 1.638938903808594 32.91170883178711 3.115100860595703 34.84024047851563 4.995418548583984 C 36.77053070068359 6.877449035644531 38.2863883972168 9.069860458374023 39.34569931030273 11.51174926757813 C 40.44340896606445 14.04215049743652 41 16.72978973388672 41 19.5 C 41 23.02606964111328 40.06275939941406 26.49895095825195 38.28960037231445 29.54318046569824 C 36.56274032592773 32.50793838500977 34.04331970214844 35.07386016845703 31.00371932983398 36.96353149414063 C 27.86207008361816 38.92142105102539 23.95387077331543 40 20 40 C 17.16856002807617 40 14.42107963562012 39.45901107788086 11.8338508605957 38.39207077026367 C 9.333780288696289 37.36106109619141 7.088291168212891 35.8848991394043 5.159759521484375 34.00458145141602 C 3.229469299316406 32.12255096435547 1.713611602783203 29.93013954162598 0.6543006896972656 27.48825073242188 C -0.4434089660644531 24.95785140991211 -1 22.27021026611328 -1 19.5 C -1 16.72978973388672 -0.4434089660644531 14.04215049743652 0.6543006896972656 11.51174926757813 C 1.713611602783203 9.069860458374023 3.229469299316406 6.877449035644531 5.159759521484375 4.995418548583984 C 7.088291168212891 3.115100860595703 9.333780288696289 1.638938903808594 11.8338508605957 0.6079292297363281 C 14.42107963562012 -0.4590110778808594 17.16856002807617 -1 20 -1 Z" stroke="none" fill="#bababa"/>
    </g>
    <path id="west" d="M72.335,81.912l-4.906,4.906,4.639,4.626L73.81,89.8l-3.075-3.069,3.239-3.289Z" transform="translate(1803.713 22.367)" fill="#a4a4a4"/>
    <path id="South" d="M81.423,102.107l4.95,4.861,4.583-4.681-1.663-1.727-3.041,3.1-3.319-3.209Z" transform="translate(1799.842 17.238)" fill="#a4a4a4"/>
    <path id="East" d="M101.068,91.444l4.906-4.906-4.639-4.626-1.742,1.647,3.075,3.069-3.239,3.29Z" transform="translate(1794.861 22.367)" fill="#a4a4a4"/>
    <path id="North" d="M90.963,73.339l-4.95-4.861-4.583,4.681,1.663,1.727,3.041-3.1,3.319,3.209Z" transform="translate(1799.84 26.083)" fill="#a4a4a4"/>
  </g>
</svg>
