<svg xmlns="http://www.w3.org/2000/svg" xmlns:xlink="http://www.w3.org/1999/xlink" width="46.852" height="46.852" viewBox="0 0 46.852 46.852">
  <defs>
    <linearGradient id="linear-gradient" y1="0.5" x2="1" y2="0.5" gradientUnits="objectBoundingBox">
      <stop offset="0" stop-color="#fff"/>
      <stop offset="1" stop-color="#d1d3d4"/>
    </linearGradient>
    <linearGradient id="linear-gradient-2" y1="0.5" x2="1" y2="0.5" gradientUnits="objectBoundingBox">
      <stop offset="0" stop-color="#d1d3d4"/>
      <stop offset="1" stop-color="#fff"/>
    </linearGradient>
  </defs>
  <g id="Group_199" data-name="Group 199" transform="translate(-225.342 -969)">
    <g id="Group_192" data-name="Group 192" transform="translate(-12886.852 436)">
      <ellipse id="Ellipse_1250" data-name="Ellipse 1250" cx="23.426" cy="23.426" rx="23.426" ry="23.426" transform="translate(13112.193 533)" fill="url(#linear-gradient)"/>
      <ellipse id="Ellipse_1251" data-name="Ellipse 1251" cx="22.255" cy="22.255" rx="22.255" ry="22.255" transform="translate(13113.364 534.171)" fill="url(#linear-gradient-2)"/>
      <g id="Group_148" data-name="Group 148" transform="translate(13118.343 539.149)">
        <ellipse id="Ellipse_25" data-name="Ellipse 25" cx="17.57" cy="17.57" rx="17.57" ry="17.57" transform="translate(4.514 4.514)" fill="#fff" opacity="0"/>
        <ellipse id="Ellipse_26" data-name="Ellipse 26" cx="17.551" cy="17.551" rx="17.551" ry="17.551" transform="translate(4.232 4.232)" fill="#f7f7f7" opacity="0.063"/>
        <ellipse id="Ellipse_27" data-name="Ellipse 27" cx="17.533" cy="17.533" rx="17.533" ry="17.533" transform="translate(3.949 3.949)" fill="#efeff0" opacity="0.125"/>
        <ellipse id="Ellipse_28" data-name="Ellipse 28" cx="17.515" cy="17.515" rx="17.515" ry="17.515" transform="translate(3.667 3.667)" fill="#e7e8e8" opacity="0.188"/>
        <ellipse id="Ellipse_29" data-name="Ellipse 29" cx="17.496" cy="17.496" rx="17.496" ry="17.496" transform="translate(3.385 3.385)" fill="#dfe0e1" opacity="0.25"/>
        <ellipse id="Ellipse_30" data-name="Ellipse 30" cx="17.478" cy="17.478" rx="17.478" ry="17.478" transform="translate(3.103 3.103)" fill="#d7d8d9" opacity="0.313"/>
        <ellipse id="Ellipse_31" data-name="Ellipse 31" cx="17.46" cy="17.46" rx="17.46" ry="17.46" transform="translate(2.821 2.821)" fill="#cfd0d1" opacity="0.375"/>
        <ellipse id="Ellipse_32" data-name="Ellipse 32" cx="17.441" cy="17.441" rx="17.441" ry="17.441" transform="translate(2.539 2.539)" fill="#c7c8ca" opacity="0.438"/>
        <ellipse id="Ellipse_33" data-name="Ellipse 33" cx="17.423" cy="17.423" rx="17.423" ry="17.423" transform="translate(2.257 2.257)" fill="#c0c1c2" opacity="0.5"/>
        <ellipse id="Ellipse_34" data-name="Ellipse 34" cx="17.405" cy="17.405" rx="17.405" ry="17.405" transform="translate(1.975 1.975)" fill="#b8b9ba" opacity="0.563"/>
        <ellipse id="Ellipse_35" data-name="Ellipse 35" cx="17.387" cy="17.386" rx="17.387" ry="17.386" transform="translate(1.693 1.693)" fill="#b0b1b3" opacity="0.625"/>
        <ellipse id="Ellipse_36" data-name="Ellipse 36" cx="17.368" cy="17.368" rx="17.368" ry="17.368" transform="translate(1.411 1.411)" fill="#a8a9ab" opacity="0.688"/>
        <ellipse id="Ellipse_37" data-name="Ellipse 37" cx="17.35" cy="17.35" rx="17.35" ry="17.35" transform="translate(1.128 1.128)" fill="#a0a1a4" opacity="0.75"/>
        <ellipse id="Ellipse_38" data-name="Ellipse 38" cx="17.332" cy="17.332" rx="17.332" ry="17.332" transform="translate(0.846 0.846)" fill="#98999c" opacity="0.813"/>
        <ellipse id="Ellipse_39" data-name="Ellipse 39" cx="17.313" cy="17.313" rx="17.313" ry="17.313" transform="translate(0.564 0.564)" fill="#909294" opacity="0.875"/>
        <ellipse id="Ellipse_40" data-name="Ellipse 40" cx="17.295" cy="17.295" rx="17.295" ry="17.295" transform="translate(0.282 0.282)" fill="#888a8d" opacity="0.938"/>
        <ellipse id="Ellipse_41" data-name="Ellipse 41" cx="17.277" cy="17.277" rx="17.277" ry="17.277" fill="#808285"/>
      </g>
      <ellipse id="Ellipse_1252" data-name="Ellipse 1252" cx="17.57" cy="17.57" rx="17.57" ry="17.57" transform="translate(13118.05 538.857)" fill="#2e4442"/>
      <ellipse id="Ellipse_1253" data-name="Ellipse 1253" cx="14.641" cy="14.641" rx="14.641" ry="14.641" transform="translate(13121.073 541.88)" fill="#2e4442"/>
      <path id="Path_129" data-name="Path 129" d="M299.8,155.219a.582.582,0,0,1-.578-.6V146.1a.582.582,0,0,1,.578-.6.625.625,0,0,1,.311.086l7.38,4.261a.582.582,0,0,1,0,1.027l-7.38,4.261a.624.624,0,0,1-.311.086Z" transform="translate(12833.206 405.787)" fill="#fff"/>
    </g>
  </g>
</svg>
