<svg id="Group_162" data-name="Group 162" xmlns="http://www.w3.org/2000/svg" xmlns:xlink="http://www.w3.org/1999/xlink" width="80.264" height="80.263" viewBox="0 0 80.264 80.263">
  <defs>
    <linearGradient id="linear-gradient" y1="0.5" x2="1" y2="0.5" gradientUnits="objectBoundingBox">
      <stop offset="0" stop-color="#fff"/>
      <stop offset="1" stop-color="#d1d3d4"/>
    </linearGradient>
    <linearGradient id="linear-gradient-2" y1="0.5" x2="1" y2="0.5" gradientUnits="objectBoundingBox">
      <stop offset="0" stop-color="#d1d3d4"/>
      <stop offset="1" stop-color="#fff"/>
    </linearGradient>
  </defs>
  <ellipse id="Ellipse_23" data-name="Ellipse 23" cx="40.131" cy="40.131" rx="40.131" ry="40.131" transform="translate(0 0)" fill="url(#linear-gradient)"/>
  <ellipse id="Ellipse_24" data-name="Ellipse 24" cx="38.125" cy="38.125" rx="38.125" ry="38.125" transform="translate(2.007 2.007)" fill="url(#linear-gradient-2)"/>
  <g id="Group_2" data-name="Group 2" transform="translate(10.535 10.534)">
    <ellipse id="Ellipse_25" data-name="Ellipse 25" cx="30.099" cy="30.099" rx="30.099" ry="30.099" transform="translate(7.732 7.732)" fill="#fff" opacity="0"/>
    <ellipse id="Ellipse_26" data-name="Ellipse 26" cx="30.067" cy="30.067" rx="30.067" ry="30.067" transform="translate(7.249 7.249)" fill="#f7f7f7" opacity="0.063"/>
    <ellipse id="Ellipse_27" data-name="Ellipse 27" cx="30.036" cy="30.036" rx="30.036" ry="30.036" transform="translate(6.766 6.766)" fill="#efeff0" opacity="0.125"/>
    <ellipse id="Ellipse_28" data-name="Ellipse 28" cx="30.004" cy="30.004" rx="30.004" ry="30.004" transform="translate(6.283 6.283)" fill="#e7e8e8" opacity="0.188"/>
    <ellipse id="Ellipse_29" data-name="Ellipse 29" cx="29.973" cy="29.973" rx="29.973" ry="29.973" transform="translate(5.799 5.799)" fill="#dfe0e1" opacity="0.25"/>
    <ellipse id="Ellipse_30" data-name="Ellipse 30" cx="29.942" cy="29.942" rx="29.942" ry="29.942" transform="translate(5.316 5.316)" fill="#d7d8d9" opacity="0.313"/>
    <ellipse id="Ellipse_31" data-name="Ellipse 31" cx="29.91" cy="29.91" rx="29.91" ry="29.91" transform="translate(4.833 4.833)" fill="#cfd0d1" opacity="0.375"/>
    <ellipse id="Ellipse_32" data-name="Ellipse 32" cx="29.879" cy="29.879" rx="29.879" ry="29.879" transform="translate(4.35 4.349)" fill="#c7c8ca" opacity="0.438"/>
    <ellipse id="Ellipse_33" data-name="Ellipse 33" cx="29.848" cy="29.848" rx="29.848" ry="29.848" transform="translate(3.866 3.866)" fill="#c0c1c2" opacity="0.5"/>
    <ellipse id="Ellipse_34" data-name="Ellipse 34" cx="29.816" cy="29.816" rx="29.816" ry="29.816" transform="translate(3.383 3.383)" fill="#b8b9ba" opacity="0.563"/>
    <ellipse id="Ellipse_35" data-name="Ellipse 35" cx="29.785" cy="29.785" rx="29.785" ry="29.785" transform="translate(2.9 2.9)" fill="#b0b1b3" opacity="0.625"/>
    <ellipse id="Ellipse_36" data-name="Ellipse 36" cx="29.754" cy="29.754" rx="29.754" ry="29.754" transform="translate(2.416 2.416)" fill="#a8a9ab" opacity="0.688"/>
    <ellipse id="Ellipse_37" data-name="Ellipse 37" cx="29.722" cy="29.722" rx="29.722" ry="29.722" transform="translate(1.933 1.933)" fill="#a0a1a4" opacity="0.75"/>
    <ellipse id="Ellipse_38" data-name="Ellipse 38" cx="29.691" cy="29.691" rx="29.691" ry="29.691" transform="translate(1.45 1.45)" fill="#98999c" opacity="0.813"/>
    <ellipse id="Ellipse_39" data-name="Ellipse 39" cx="29.66" cy="29.66" rx="29.66" ry="29.66" transform="translate(0.967 0.967)" fill="#909294" opacity="0.875"/>
    <ellipse id="Ellipse_40" data-name="Ellipse 40" cx="29.628" cy="29.628" rx="29.628" ry="29.628" transform="translate(0.483 0.483)" fill="#888a8d" opacity="0.938"/>
    <ellipse id="Ellipse_41" data-name="Ellipse 41" cx="29.597" cy="29.597" rx="29.597" ry="29.597" fill="#808285"/>
  </g>
  <ellipse id="Ellipse_42" data-name="Ellipse 42" cx="30.099" cy="30.099" rx="30.099" ry="30.099" transform="translate(10.033 10.033)" fill="#2e4442"/>
  <ellipse id="Ellipse_43" data-name="Ellipse 43" cx="25.082" cy="25.082" rx="25.082" ry="25.082" transform="translate(15.049 15.049)" fill="#2e4442"/>
  <g id="Group_4" data-name="Group 4" transform="translate(23.03 23.03)">
    <path id="Path_2" data-name="Path 2" d="M1088.7,1004.716l-4.049-1.012a.24.24,0,0,1-.159-.16,13.077,13.077,0,0,0-1.492-3.605.238.238,0,0,1,0-.225l2.146-3.577a.178.178,0,0,0-.025-.206l-2.6-2.6a.178.178,0,0,0-.206-.025l-3.577,2.147a.237.237,0,0,1-.225,0,13.092,13.092,0,0,0-3.606-1.492.24.24,0,0,1-.159-.159l-1.012-4.048a.177.177,0,0,0-.163-.128h-3.684a.177.177,0,0,0-.163.128L1068.7,993.8a.24.24,0,0,1-.16.159,13.075,13.075,0,0,0-3.6,1.492.238.238,0,0,1-.225,0l-3.578-2.147a.178.178,0,0,0-.206.025l-2.6,2.6a.177.177,0,0,0-.025.206l2.146,3.577a.236.236,0,0,1,0,.225,13.079,13.079,0,0,0-1.491,3.605.238.238,0,0,1-.159.16l-4.048,1.012a.178.178,0,0,0-.127.163v3.684a.177.177,0,0,0,.127.163l4.048,1.012a.24.24,0,0,1,.159.16,13.064,13.064,0,0,0,1.492,3.605.236.236,0,0,1,0,.225l-2.146,3.577a.177.177,0,0,0,.025.206l2.6,2.6a.178.178,0,0,0,.206.025l3.578-2.146a.24.24,0,0,1,.225,0,13.09,13.09,0,0,0,3.6,1.492.238.238,0,0,1,.16.158l1.012,4.048a.177.177,0,0,0,.163.128h3.684a.177.177,0,0,0,.163-.128l1.012-4.048a.241.241,0,0,1,.159-.159A13.076,13.076,0,0,0,1078.5,1018a.237.237,0,0,1,.225,0l3.577,2.146a.178.178,0,0,0,.206-.025l2.6-2.6a.178.178,0,0,0,.025-.206l-2.146-3.577a.238.238,0,0,1,0-.225,13.11,13.11,0,0,0,1.492-3.605.237.237,0,0,1,.158-.16l4.049-1.012a.177.177,0,0,0,.127-.163v-3.684A.178.178,0,0,0,1088.7,1004.716Zm-16.974,9.606a7.6,7.6,0,1,1,7.6-7.6A7.6,7.6,0,0,1,1071.721,1014.322Z" transform="translate(-1054.62 -989.62)" fill="#fff"/>
  </g>
</svg>
