<?xml version="1.0" encoding="utf-8"?>
<!-- Generator: Adobe Illustrator 22.1.0, SVG Export Plug-In . SVG Version: 6.00 Build 0)  -->
<svg version="1.1" id="Group_175" xmlns="http://www.w3.org/2000/svg" xmlns:xlink="http://www.w3.org/1999/xlink" x="0px" y="0px"
	 viewBox="0 0 80.5 80.5" style="enable-background:new 0 0 80.5 80.5;" xml:space="preserve">
<style type="text/css">
	.st0{fill:url(#Ellipse_1250_1_);}
	.st1{fill:url(#Ellipse_1251_1_);}
	.st2{fill:#FFFFFF;fill-opacity:0;}
	.st3{opacity:6.300000e-02;fill:#F7F7F7;enable-background:new    ;}
	.st4{opacity:0.125;fill:#EFEFF0;enable-background:new    ;}
	.st5{opacity:0.188;fill:#E7E8E8;enable-background:new    ;}
	.st6{opacity:0.25;fill:#DFE0E1;enable-background:new    ;}
	.st7{opacity:0.313;fill:#D7D8D9;enable-background:new    ;}
	.st8{opacity:0.375;fill:#CFD0D1;enable-background:new    ;}
	.st9{opacity:0.438;fill:#C7C8CA;enable-background:new    ;}
	.st10{opacity:0.5;fill:#C0C1C2;enable-background:new    ;}
	.st11{opacity:0.563;fill:#B8B9BA;enable-background:new    ;}
	.st12{opacity:0.625;fill:#B0B1B3;enable-background:new    ;}
	.st13{opacity:0.688;fill:#A8A9AB;enable-background:new    ;}
	.st14{opacity:0.75;fill:#A0A1A4;enable-background:new    ;}
	.st15{opacity:0.813;fill:#98999C;enable-background:new    ;}
	.st16{opacity:0.875;fill:#909294;enable-background:new    ;}
	.st17{opacity:0.938;fill:#888A8D;enable-background:new    ;}
	.st18{fill:#808285;}
	.st19{fill:#2E4442;}
	.st20{fill:#FFFFFF;}
</style>
<linearGradient id="Ellipse_1250_1_" gradientUnits="userSpaceOnUse" x1="-275.5349" y1="278.0285" x2="-274.5349" y2="278.0285" gradientTransform="matrix(80.518 0 0 -80.518 22185.5215 22426.5566)">
	<stop  offset="0" style="stop-color:#FFFFFF"/>
	<stop  offset="1" style="stop-color:#D1D3D4"/>
</linearGradient>
<ellipse id="Ellipse_1250" class="st0" cx="40.3" cy="40.3" rx="40.3" ry="40.3"/>
<linearGradient id="Ellipse_1251_1_" gradientUnits="userSpaceOnUse" x1="-275.3526" y1="277.8984" x2="-274.3526" y2="277.8984" gradientTransform="matrix(76.492 0 0 -76.492 21064.2793 21297.2637)">
	<stop  offset="0" style="stop-color:#D1D3D4"/>
	<stop  offset="1" style="stop-color:#FFFFFF"/>
</linearGradient>
<ellipse id="Ellipse_1251" class="st1" cx="40.3" cy="40.3" rx="38.2" ry="38.2"/>
<g id="Group_148" transform="translate(10.568 10.568)">
	<ellipse id="Ellipse_25" class="st2" cx="38" cy="38" rx="30.2" ry="30.2"/>
	<ellipse id="Ellipse_26" class="st3" cx="37.4" cy="37.4" rx="30.2" ry="30.2"/>
	<ellipse id="Ellipse_27" class="st4" cx="36.9" cy="36.9" rx="30.1" ry="30.1"/>
	<ellipse id="Ellipse_28" class="st5" cx="36.4" cy="36.4" rx="30.1" ry="30.1"/>
	<ellipse id="Ellipse_29" class="st6" cx="35.9" cy="35.9" rx="30.1" ry="30.1"/>
	<ellipse id="Ellipse_30" class="st7" cx="35.4" cy="35.4" rx="30" ry="30"/>
	<ellipse id="Ellipse_31" class="st8" cx="34.9" cy="34.9" rx="30" ry="30"/>
	<ellipse id="Ellipse_32" class="st9" cx="34.3" cy="34.3" rx="30" ry="30"/>
	<ellipse id="Ellipse_33" class="st10" cx="33.8" cy="33.8" rx="29.9" ry="29.9"/>
	<ellipse id="Ellipse_34" class="st11" cx="33.3" cy="33.3" rx="29.9" ry="29.9"/>
	<ellipse id="Ellipse_35" class="st12" cx="32.8" cy="32.8" rx="29.9" ry="29.9"/>
	<ellipse id="Ellipse_36" class="st13" cx="32.3" cy="32.3" rx="29.8" ry="29.8"/>
	<ellipse id="Ellipse_37" class="st14" cx="31.8" cy="31.8" rx="29.8" ry="29.8"/>
	<ellipse id="Ellipse_38" class="st15" cx="31.2" cy="31.2" rx="29.8" ry="29.8"/>
	<ellipse id="Ellipse_39" class="st16" cx="30.7" cy="30.7" rx="29.8" ry="29.8"/>
	<ellipse id="Ellipse_40" class="st17" cx="30.2" cy="30.2" rx="29.7" ry="29.7"/>
	<ellipse id="Ellipse_41" class="st18" cx="29.7" cy="29.7" rx="29.7" ry="29.7"/>
</g>
<ellipse id="Ellipse_1252" class="st19" cx="40.3" cy="40.3" rx="30.2" ry="30.2"/>
<ellipse id="Ellipse_1253" class="st19" cx="40.4" cy="40.4" rx="25.2" ry="25.2"/>
<path class="st20" d="M40.2,49.5c-5.1,0-9.2-4-9.1-9.1c0-5,4.1-9,9.2-9c5.1,0,9.2,4,9.1,9.1C49.4,45.5,45.3,49.5,40.2,49.5z"/>
<path class="st20" d="M14.9,42.8c0-1.6,0-3.1,0-4.7c1.6,0,3.1,0,4.7,0c1.9-10.2,8-16.2,18.3-18.1c0-1.6,0-3.1,0-4.6
	c1.6,0,3.2,0,4.7,0c0,1.5,0,3.1,0,4.6C53,21.9,59,28,60.9,38.1c1.6,0,3.1,0,4.7,0c0,1.6,0,3.1,0,4.7c-1.6,0-3.1,0-4.7,0
	C59,53,52.9,59,42.6,60.8c0,1.6,0,3.1,0,4.6c-1.6,0-3.2,0-4.7,0c0-1.5,0-3.1,0-4.6c-10.3-1.9-16.4-7.9-18.3-18.1
	C18,42.8,16.5,42.8,14.9,42.8z M56.4,40.5c0-8.8-7.1-15.9-16-16c-9,0-16.2,7-16.2,15.9c0,8.8,7.1,15.9,16,16
	C49.1,56.4,56.4,49.3,56.4,40.5z"/>
</svg>
