<?xml version="1.0" encoding="utf-8"?>
<!-- Generator: Adobe Illustrator 21.0.0, SVG Export Plug-In . SVG Version: 6.00 Build 0)  -->
<svg version="1.1" id="Layer_1" xmlns="http://www.w3.org/2000/svg" xmlns:xlink="http://www.w3.org/1999/xlink" x="0px" y="0px"
	 viewBox="0 0 80 80" style="enable-background:new 0 0 80 80;" xml:space="preserve">
<style type="text/css">
	.st0{display:none;fill:#FFFFFF;}
	.st1{fill:#F2F0F6;}
	.st2{fill:#F3F1F8;}
	.st3{fill:#EEEBF1;}
	.st4{fill:#EFECF1;}
	.st5{fill:#EDEAF0;}
	.st6{fill:#E2E0E6;}
	.st7{fill:#E2E0E5;}
	.st8{fill:#ECEAEF;}
	.st9{fill:#EEECF1;}
	.st10{fill:#E1DFE5;}
	.st11{fill:#ECECED;}
	.st12{fill:#EBE9EE;}
	.st13{fill:#DDDBE1;}
	.st14{fill:#DFDDE3;}
	.st15{fill:#F1F0F1;}
	.st16{fill:#DEDEDE;}
	.st17{fill:#E2E1E2;}
	.st18{fill:#D7D7D7;}
	.st19{fill:#C0BEBE;}
	.st20{fill:#D8D6DC;}
	.st21{fill:#C9C2C9;}
	.st22{fill:#D9D7DD;}
	.st23{fill:#EBEBEB;}
	.st24{fill:#DDDDDD;}
	.st25{fill:#F4F4F4;}
	.st26{fill:#E6E6E7;}
	.st27{fill:#CBC9CF;}
	.st28{fill:#DCDBDE;}
	.st29{fill:#EBEBEC;}
	.st30{fill:#BBBABE;}
	.st31{fill:#C5C4C4;}
	.st32{fill:#CBCACB;}
	.st33{fill:#DCDCDB;}
	.st34{fill:#D5D3D9;}
	.st35{fill:#D6D4DA;}
	.st36{fill:#A8A4A5;}
	.st37{fill:#D1D0D6;}
	.st38{fill:#A2A1A1;}
	.st39{fill:#BAB5B5;}
	.st40{fill:#CCCBCF;}
	.st41{fill:#DAD9DB;}
	.st42{fill:#F3F3F4;}
	.st43{fill:#F2F0F5;}
	.st44{fill:#E6E4EA;}
	.st45{fill:#C5BEC4;}
	.st46{fill:#DDDCDD;}
	.st47{fill:#BAB5B6;}
	.st48{fill:#E7E7E7;}
	.st49{fill:#CAC9CE;}
	.st50{fill:#EFEEEF;}
	.st51{fill:#BAB5BB;}
	.st52{fill:#DBD9DF;}
	.st53{fill:#CBC9CE;}
	.st54{fill:#DBDADB;}
	.st55{fill:#E9E9E9;}
	.st56{fill:#BCBABF;}
	.st57{fill:#D3D3D3;}
	.st58{fill:#DCDADF;}
	.st59{fill:#E5E3E8;}
	.st60{fill:#AEADAC;}
	.st61{fill:#D5D4DA;}
	.st62{fill:#B3B1B2;}
	.st63{fill:#B5B3B5;}
	.st64{fill:#C9C9C9;}
	.st65{fill:#BCB9BA;}
	.st66{fill:#B8B5B6;}
	.st67{fill:#EDEBF0;}
	.st68{fill:#EEEBF0;}
	.st69{fill:#E4E2E8;}
	.st70{fill:#E7E5EB;}
	.st71{fill:#EAE8ED;}
	.st72{fill:#E3E1E6;}
	.st73{fill:#E8E6EC;}
	.st74{fill:#F1EFF4;}
	.st75{fill:#E8E7EC;}
	.st76{fill:#E4E2E7;}
	.st77{fill:#E0DEE3;}
	.st78{fill:#D6D6D6;}
	.st79{fill:#CCC7C8;}
	.st80{fill:#CCCBD1;}
	.st81{fill:#DCDAE0;}
	.st82{fill:#D1C9D0;}
	.st83{fill:#D5CED6;}
	.st84{fill:#CEC6CD;}
	.st85{fill:#D2CBD2;}
	.st86{fill:#F6F4FA;}
	.st87{fill:#E9E7ED;}
	.st88{fill:#E0DEE4;}
	.st89{fill:#C3BEC0;}
	.st90{fill:#B5B0B0;}
	.st91{fill:#C7C3C7;}
	.st92{fill:#D5D4D8;}
	.st93{fill:#C6C6C5;}
	.st94{fill:#CEC8C9;}
	.st95{fill:#D4D3D9;}
	.st96{fill:#C7B6C5;}
	.st97{fill:#E7E6EB;}
	.st98{fill:#E1DFE4;}
	.st99{fill:#E5E3E9;}
	.st100{fill:#DAD5D7;}
	.st101{fill:#D3D0D4;}
	.st102{fill:#D5D0D2;}
	.st103{fill:#D2D0D5;}
	.st104{fill:#D9D3DB;}
	.st105{fill:#CECCD1;}
	.st106{fill:#D3D1D7;}
	.st107{fill:#E0D9E0;}
</style>
<g>
	<path class="st0" d="M40.3,63.8c-13,0-26.1,0-39.1,0c-0.9,0-1-0.2-1-1c0-15.2,0-30.3,0-45.5c0-0.9,0.2-1,1-1c26.1,0,52.1,0,78.2,0
		c0.9,0,1,0.2,1,1c0,15.2,0,30.3,0,45.5c0,0.9-0.2,1-1,1C66.4,63.8,53.4,63.8,40.3,63.8z"/>
	<path class="st1" d="M36.7,37.4c0.5-0.4,1.1-0.4,1.6-0.5c3.1-0.4,5.9-1.8,8.8-3c0.3-0.1,0.5-0.3,0.7-0.5c1.1-0.5,1.7-1.5,2.7-2.2
		c-0.6-0.3-0.9,0.3-1.3,0.3c-0.2-0.1-0.2-0.4-0.5-0.5c0.2,0.2,0.3,0.4,0.5,0.6c-0.8,0.8-1.6,0.5-2.4,0c-0.5-0.3-0.9-0.6-1.4-0.7
		c-0.1,0-0.2-0.1-0.3-0.1c-0.2-0.3-0.4-0.5-0.5-0.9c2.1-2.2,4.3-2.5,6.5-1c0.3,0.3,0.2,0.8,0.5,1.1c-0.1-0.3-0.2-0.6,0-0.9
		c0.6,0,0.7-0.4,0.8-0.9c0.2-1.2,0.5-2.4,1-3.6c0.9-0.4,1.1,0.2,1,0.8c-0.4,2.3,0.3,4.7-1,6.8c0,0.1-0.1,0.2-0.1,0.4
		c-0.6,0.8-1.4,1.4-2,2.2c-0.1,0.1-0.2,0.2-0.2,0.3c-1.6,0.9-3.5,1.1-4.9,2.3c-0.2,0.1-0.4,0.3-0.6,0.2c-1.1-0.6-1.6,0.3-2.3,0.8
		c-0.7,0.6-1.7,0.7-2.5,1c-0.6,0.2-0.4,0.6-0.3,0.7c0.6,0.4,0.9,1.2,1.7,1.3c1,0.2,2,0.5,2.8,1.1c1.3,0.1,2.5,0.4,3.7,0.9
		c1.1,0.4,2.2,0.6,3.3,0.9c-0.7,0.8-0.5,1.8-1,2.6c-0.5,0.3-1.1,0.2-1.7,0.2c-2.7,0-5.3,0-8,0.1c-0.5,0-0.7,0.2-0.9,0.6
		c-1,0.5-1.9-0.3-2.9-0.3c-0.4,0-0.9-0.1-1.4-0.2c-0.5-0.1-1.1-0.2-1.6-0.4c-1.1-0.4-2.2-0.9-3.3-1c-0.6-0.1-1.1-0.4-1.3-1
		c-0.1-0.5-0.6-0.8-0.9-1.1c-0.5-0.6-0.6-1.1,0.3-1.4c-1.1-0.3-2.2,0.2-3.2-0.4c-0.1-1-0.1-1,1.1-1.6c-1.1,0.2-2.2,0.4-3.2,0.5
		c-0.7,0.1-1.3,0.2-1.9-0.2c-0.3-0.8,0.2-1,0.8-1.1c1-0.2,2-0.5,3-0.8c0.2-0.3,0.6-0.4,0.9-0.7c0.9,0.6,1.8,0.4,2.8,0.3
		c2,0,4-0.1,5.9-0.1C36.2,38.3,36.4,37.8,36.7,37.4z"/>
	<path class="st2" d="M22.4,40.7c1.6,0,3.1,0,4.6-0.7c0.2-0.1,0.5-0.1,0.7,0c0.3,0,0.6,0.1,0.6,0.5c0,0.4-0.3,0.5-0.6,0.5
		c-0.7,0-1.4,0-1.3,1c0.3,0.5,0.1,0.8-0.3,1c-0.8,0.6-1.6,1.3-2.7,1.4c-0.8,0-1.4,0.8-2.2,0.7c-0.9,0.2-0.5,1.2-1,1.7
		c-0.6,0.6-1.2,1.3-2.1,1.5c-0.7,0.1-1.4-0.1-2,0.4c-0.2,0.1-0.5,0.2-0.7,0.3c-1.6,0-3,0.6-3.9,2c-0.5,0.2-0.9,0.1-1.4,0.2
		c-0.3,0-0.6,0-0.8,0c-0.4,0-0.9,0-1.3-0.3c-0.1-0.1-0.2-0.2-0.2-0.4C7.6,49.6,7.6,48.8,8,48c0.4-0.8,1.1-1.3,2-1.3
		c0.9-0.4,1.9-0.5,2-1.8c1.2-0.1,1.8-1.4,3-1.5c0.2-0.8,0.8-0.9,1.5-1.1c1.2-1.2,2.9-1.2,4.3-1.9C21.3,40.2,21.9,40.3,22.4,40.7z"/>
	<path class="st3" d="M22.4,40.7c-0.8,0.1-1.6-0.2-2.3,0.6c-0.5,0.5-1.7-0.1-2.4,0.6c-0.3,0.3-0.5,0.8-1.1,0.8
		c-0.5-1.2-1.8-1.1-2.6-1.8c-0.3-0.4-0.8-0.7-1.2-1c-0.7-0.5-1.4-1-1.9-1.9c-0.6-1.3-0.7-1.3,0.7-2c0.2,0,0.4,0,0.6,0.1
		c1.7,0.5,3.3,0.3,4.9-0.2c1,0.2,2,0.3,3,0.5c0.1,0.1,0.1,0.2,0.2,0.3c0.4,1.7,0.7,1.8,2.4,1.6c1-0.1,2.1,0.2,3.1,0.1
		c0.2,0,0.5,0.2,0.6,0.4c0,0.4-0.3,0.6-0.6,0.5c-1.1-0.2-1.9,0.8-3,0.6C22.4,39.9,22.4,40.4,22.4,40.7z"/>
	<path class="st1" d="M62.8,30.4c0.8,0.1,1.7-0.2,2.5,0.2c0.1,0.1,0.1,0.1,0.1,0.2c0.8,2.7,0.4,2.4-1.6,2.4c-1.6,0-3.1,0.2-4.6,0.4
		c-1.4,0.1-2.8,0.2-4.1-0.1c-0.3-0.3-0.6-0.1-1-0.1c-0.6,0.1-1.3,0.2-1.1-0.9l0,0c0.3-0.5,0.5-1.3,1.3-1.2c0.1,0,0.2,0,0.2-0.1
		c0.7-2,2.6-1.4,4.1-1.8c0.7-0.2,1.3,0,1.8,0.4c0.3,0.2,0.6,0.3,0.9,0.3C61.9,30.1,62.3,30.8,62.8,30.4z"/>
	<path class="st4" d="M51,46.7c0-0.3,0-0.6,0-0.9c-0.2-0.9,0.2-1.4,1-1.6c1.5,0.4,2.9,0.8,4.4,1.2c0.2,0.1,0.4,0.2,0.6,0.4
		c1.2,0.6,2.5,0.7,3.8,1c1.3-0.2,2.4,0.3,3.5,0.8c0.3,0.4,0.5,1,1.2,1.1c1,0.3,2,0.6,3.1,0.8c0.5,0.1,1.1,0.2,1.1,0.9
		c-0.5,0.8-1.2,0.8-2,0.6c-2.4-0.9-5-1.3-7.5-1.9c-1.8-0.4-3.7-0.8-5.5-1.6c-0.6-0.3-1.2-0.3-1.8-0.3C52.3,47.1,51.6,47.3,51,46.7z"
		/>
	<path class="st5" d="M61.6,30.4c-0.3,0.4-0.8,0.4-1.1,0.1c-1.1-1.3-2.4-0.6-3.5-0.2c-0.4,0.1-0.7,0.1-1.1,0.1c-0.2,0-0.6,0-0.6,0.2
		c0,1.5-1.7,1-2.1,2c0.9-2,0.7-4.1,0.9-6.2c0.1-0.6,0.7-1.7-0.7-1.8c0.5-1.2,0.9-2.4,1.5-3.5c0.9-1.5,2.4-2.2,4-2.8
		c0.7,0.6,0.1,0.9-0.3,1.2c-2,0.7-3.1,2.1-3.2,4.2c0,0.4-0.1,0.7-0.3,1.1c-0.3,0.8-0.2,1.6-0.4,2.4c-0.1,0.6,0.2,0.7,0.7,0.6
		c1.3-0.3,2.7,0.1,4.1-0.4c0.9-0.3,1.2,0.7,1.7,1.2C61.4,29.3,61.7,29.8,61.6,30.4z"/>
	<path class="st6" d="M58.6,19.4c0.1-0.3,0.6-0.6,0.3-1c1.5-0.2,1.7,0,1.8,1.5c0.1,1.3,0.6,2.7,0.3,4c0.3,0.5-0.1,1.1,0.5,1.5
		c0,0.4,0,0.8,0,1.3c-0.1,0.1-0.2,0.2-0.4,0.2c-1.1-0.3-1.5-1.3-1.6-2.3c-0.1-1-0.4-1.7-1.6-1.6c-0.7,0-0.9-0.5-1-1.2
		c-0.1-0.7-0.1-1.3,0.6-1.6C57.7,19.9,58.1,19.6,58.6,19.4z"/>
	<path class="st7" d="M67.6,33.9c-1.1,0.4-2.3,0.5-3.5,0.7c-0.5,0.1-0.9,0.1-1.3-0.1c-0.5,0.3-1.1-0.1-1.7,0.2
		c-0.9,0.1-1.7,0.2-2.6,0.3C57.7,35,56.9,35,56,35c-0.3,0-0.5,0.1-0.8,0.1c-0.3-0.1-0.7-0.2-0.7-0.6c0.7-0.7,1.5-0.9,2.4-0.9
		c1.5,0,2.9,0,4.3-0.3c0.4-0.2,0.9-0.1,1.3-0.1c1.3,0.3,2.5,0.5,3.7-0.3c0.1-0.1,0.2-0.1,0.3-0.1c0.3,0,0.5,0,0.7,0.1
		C67.7,33.2,67.8,33.5,67.6,33.9z"/>
	<path class="st8" d="M69.6,50.3c-0.3-0.6-0.8-0.4-1.3-0.5c-1-0.2-2.1-0.3-3-1c0,0,0.1-0.1,0.1-0.1c0.8-0.4,1.8,0,2.6-0.4
		c1.8,0.4,3.5,0.8,5.3,1.3c0.4,0.5,0.6,1,0.6,1.6c-0.2,0.5-0.6,0.8-1.1,0.6C71.8,51.3,70.5,51.1,69.6,50.3z"/>
	<path class="st9" d="M62.8,33.4c-0.5,0-1,0-1.5,0c-0.7,0.2-1.3,0.2-2,0c1.5-0.5,3.1-0.5,4.7-0.5c0.5,0,1.1,0,1.7,0
		c-0.5-0.8-0.3-1.5-0.3-2.3c0.9,0,1.9,0,2.8,0c0.4,0.2,0.8,0.2,1.2,0c0.2,0,0.4,0,0.5,0.2c0.3,0.4,0.1,0.6-0.2,0.8
		c-1.1,0.3-2,0.9-3.1,1.2v0C65.4,33.7,64.1,33.4,62.8,33.4z"/>
	<path class="st10" d="M44.5,51c-0.9,0-1.7-0.3-2.5-0.5c0.7-0.5,0-0.6-0.3-0.9c-0.3-0.4-1.2-0.2-0.8-1c0.4-0.2,0.8-0.2,1.1-0.2
		c2.7,0.6,5.4,1.1,8.1,1.7c0.4,0.6,0,0.7-0.5,0.7c-0.6,0.1-1.2-0.1-1.7,0.1c-0.7,0.2-1.5,0-2.2,0C45.4,50.9,44.9,50.6,44.5,51z"/>
	<path class="st11" d="M26.4,39c-0.8-0.4-1.7,0-2.5-0.2c-1-0.2-1.9-0.1-2.9-0.1c-0.6,0-0.8-0.3-0.8-0.9c0-0.5,0-0.9,0-1.4
		c2.2,0.9,4.5,1.3,6.8,1.8C26.9,38.6,26.5,38.7,26.4,39z"/>
	<path class="st12" d="M11.6,36.2c-0.1,0.5-1.1,0.5-0.9,0.8c0.5,0.6,0.7,1.5,1.4,2c0.3,0.2,0.7,0.5,1,0.7c-0.2,0.3-0.5,0.3-0.9,0.2
		c-1.3-0.7-2.7-1.2-3.7-2.5c-0.4-0.5,0-0.8,0.2-1.1c0.4-0.7,2.5-1.2,3.3-0.9C12.2,35.9,11.7,35.9,11.6,36.2z"/>
	<path class="st13" d="M40.7,48.8c0.3,0.4,1,0.1,1.2,0.7c0.3,0.7,0.9-0.1,1.3,0.2c-0.2,0.7-1,0.5-1.3,0.9c-1.8-0.5-3.5-1-5.3-1.5
		c-0.3-0.5-0.7-1.1,0-1.7c0.7,0,1.4,0.1,2.1,0.4c0.3,0.8,1,1,1.9,0.9C40.6,48.7,40.7,48.7,40.7,48.8z"/>
	<path class="st14" d="M45,42.5c-1.1,0.1-1.9-0.8-3-0.8c-1.2-1.3-1.2-1.4,0.8-2.7c0.2-0.1,0.4-0.2,0.6-0.2c0.6-0.1,1.3-0.4,1.7,0.3
		c0.4,0.6-0.4,0.9-0.7,1.3c0,0.1-0.1,0.1-0.1,0.2c-0.1,0.3-0.5,0.6,0.1,0.7c0.2,0.3,0.4,0.6,0.6,0.9C45,42.3,45,42.4,45,42.5z"/>
	<path class="st15" d="M36.7,37.4c0.1,0.9-0.2,1.3-1.2,1.3c-1.6-0.1-3.2,0-4.8,0c-0.4,0-0.8,0.1-1-0.2c2.1-0.5,4.2-0.9,6.3-1.1
		C36.2,37.4,36.5,37.3,36.7,37.4z"/>
	<path class="st16" d="M36.7,47.5c0,0.5,0,1,0,1.5c-1-0.4-1.9-1-3-0.5c-0.3-0.5-1-0.3-1.3-0.7c-0.1-0.2-0.1-0.3,0-0.5
		c0.6-0.1-0.3-0.5,0.1-0.7c0.8-0.5,1.5,0.1,2.2,0.2c0.5-0.1,1,0.2,1.5,0.3C36.3,47.2,36.9,47,36.7,47.5z"/>
	<path class="st12" d="M49,31.4c0.3-0.3,0.5-0.8,1.1-0.8c0.3,0,0.8-0.1,0.9,0.4c0.1,0.4-0.2,0.6-0.6,0.6c-0.7,0.1-0.8,0.8-1.2,1.2
		c-0.5,0.5-0.9,0.6-1.5,0.6c0-0.1,0-0.2,0-0.3c0.1-0.1,0.2-0.3,0-0.5c-1.1-0.5-2.3-0.8-2.8-2.1c0.6,0,1.2-0.1,1.8,0.5
		C47.4,31.9,48.2,31.8,49,31.4L49,31.4z"/>
	<path class="st17" d="M48,50.8c0.7-0.3,1.5,0.1,2.3-0.2c1-0.3,2-0.3,2.9,0.3c0.1,0.1,0.1,0.3,0.2,0.4c0.1,0.5,0.1,1.1-0.3,1.5
		c-0.9-0.2-1.8-0.3-2.8-0.5c-0.1-0.1-0.1-0.1-0.1-0.2c0-0.5-0.4-0.2-0.6-0.4C49,51.4,48.1,51.8,48,50.8z"/>
	<path class="st13" d="M60.3,54c-1.5-0.2-3-0.5-4.5-0.7c-0.1-0.1-0.1-0.2,0-0.3c0.3-0.3,0.8-0.2,1-0.6c0.2-0.2,0.4-0.4,0.6-0.4
		c1.7,0.3,3.4,0.2,5.2,0.6c-0.4,0.7-0.8,0.6-1.2,0.6c0,0-0.2-0.2-0.2,0c0,0.1,0.1,0.1,0.1,0.2C61.1,53.9,60.6,53.7,60.3,54z"/>
	<path class="st18" d="M8.5,37.5c1.2,0.8,2.5,1.3,3.5,2.3c0.1,0.1,0.1,0.2,0.2,0.3c0.1,0.2,0.1,0.3,0,0.5c0,0.2-0.1,0.3-0.2,0.5
		c-1.5-0.3-2.3-1.7-3.5-2.5C8.2,38.3,8.7,37.8,8.5,37.5z"/>
	<path class="st19" d="M28.4,51c-0.2,0.2-0.5,0.3-0.7,0.5c-0.3,0.2-0.7,0.4-1,0.5c-1.2,0.9-2.5,1.7-4,2c0-0.3-0.2-0.5-0.3-0.7
		c0.4-0.7,1.1-1,1.8-1.3c1.2-0.4,2.2-1.2,3.4-1.4c0.1,0,0.2,0,0.4,0C28.1,50.7,28.3,50.8,28.4,51z"/>
	<path class="st20" d="M60.3,54c0.1-0.7,0.6-0.4,1-0.5c1.3-0.5,2.6,0,3.9,0.2c0.7,0.3,1.4,0.4,2.1,0.6c0.1,0.1,0.2,0.2,0.2,0.3
		c0,0.1,0,0.3-0.1,0.4C65,54.8,62.6,54.5,60.3,54z"/>
	<path class="st21" d="M14.6,57.5c-1.6,0.7-3.3,1.2-5,1.5c-0.3-0.2-0.8,0.1-0.9-0.5c0.1-0.7,0.7-0.8,1.3-0.8
		c0.8-0.1,1.6-0.2,2.3-0.6c0.1-0.1,0.2-0.1,0.3-0.1c0.5-0.1,1-0.3,1.5-0.2C14.3,57,14.6,57.1,14.6,57.5z"/>
	<path class="st12" d="M17.1,35.9c0,0.4-0.3,0.4-0.6,0.5c-1.3,0.4-2.7,0.2-4,0.2c-0.3,0-0.4-0.2-0.5-0.5c0.1-0.8,0.7-0.5,1.1-0.5
		c0.5-0.1,1,0.2,1.4-0.2C15.5,35.4,16.3,35.6,17.1,35.9z"/>
	<path class="st22" d="M77.4,52.8c0,0.1,0,0.2,0,0.2c-0.4,0.3-0.9,0.3-1.2,0.8c-0.9,0.7-1.9,1.1-3,1.2C73,54.9,73,54.7,73,54.5
		c0.4-0.6,1.1-1,1.4-1.7c0.3-0.8,1.1-0.4,1.8-0.3c0.5,0.1,0.7-0.8,1.3-0.4C77.6,52.4,77.6,52.6,77.4,52.8z"/>
	<path class="st22" d="M12.1,40.5c0-0.2,0-0.3,0-0.5c0.9-0.3,1.4,0.5,2,0.8c0.6,0.3,1.1,0.6,1.7,0.7c0.8,0.2,0.8,0.7,0.8,1.3
		c-0.6,0.1-1.1,0.3-1.5,0.8c0-1-1.2-0.9-1.5-1.5c0.4-0.4,0.9-0.3,1.4-0.1C13.9,41.5,12.8,41.4,12.1,40.5z"/>
	<path class="st14" d="M55.8,53c0,0.1,0,0.2,0,0.2c-0.9-0.2-1.8-0.3-2.8-0.5c0-0.5,0-1,0-1.5c0.3-0.2,0.6-0.3,0.8-0.1
		c0.6,0.4,1.3,0.5,2,0.6c0.5,0.1,0.9,0.4,1,0.9C56.6,53.1,56.1,52.7,55.8,53z"/>
	<path class="st23" d="M2.3,55.8c-0.2-1.5,0.3-2.6,1.5-3.5c0.1,0.1,0.1,0.2,0.2,0.3c0,0.1,0,0.2,0,0.4c-0.1,0.5-0.3,1-0.5,1.5
		c-0.3,0.7,0.4,0.2,0.5,0.4C4,55,4,55.2,4,55.5C4,55.7,4,55.8,4,56c-0.2,0.5-0.4,1-1.1,0.9C2.1,56.9,2.6,56.1,2.3,55.8z"/>
	<path class="st24" d="M50.3,52c0,0.1,0,0.2,0,0.2c-1.9-0.4-3.9-0.8-5.8-1.3c0.4-0.9,1.1-0.3,1.6-0.3c0.7,0,1.3,0.1,2,0
		c0.3,0.9,1.3,0.2,1.8,0.8C49.8,51.8,50.5,51.5,50.3,52z"/>
	<path class="st25" d="M8,48c0,0.8,0,1.7,0,2.5c-0.7,0.4-1.4,0.1-2-0.1c-0.8-0.3-0.2-0.8,0-1.2C6.5,48.6,7.5,48.6,8,48z"/>
	<path class="st26" d="M61.1,26.6c0.1,0,0.2,0,0.3,0c0.9,0.7,0.4,1.8,0.7,2.7c0.2,0.5,0.1,1,0.8,1c-0.4,0.5-0.8,0.2-1.3,0
		c-0.4-0.4-0.5-1-0.5-1.5c-0.3-0.4-0.4-0.9-0.3-1.5C60.8,27.1,60.9,26.9,61.1,26.6z"/>
	<path class="st27" d="M55.3,34.9c0.2-0.1,0.3-0.2,0.5-0.2c0.5,0.5-0.5,1,0,1.5c-1,0.8-2.2,1.3-3.5,1.8c-0.2-0.2-0.2-0.5,0-0.7
		C53.3,36.6,54.1,35.4,55.3,34.9z"/>
	<path class="st28" d="M45,30.7c1,0.9,2.1,1.5,3.3,2c-0.2,0.3-0.6,0.2-0.8,0.5c-1-0.4-1.8-1.3-3-1.5c-0.4-0.1-0.5-0.4-0.3-0.7
		C44.4,30.6,44.6,30.4,45,30.7L45,30.7z"/>
	<path class="st29" d="M73.9,51c-0.3-0.4-0.6-0.9-0.5-1.5c0.8,0.1,1.5,0.2,2.3,0.3c0.2,0.7,1,0.4,1.3,0.8c-0.1,0.6-0.6,0.5-0.9,0.5
		c-0.7,0-1.3,0.1-2,0C74,51.1,73.9,51.1,73.9,51z"/>
	<path class="st30" d="M55.8,36.2c-0.3,0-0.9,0.1-0.5-0.6c0.2-0.3,0.5-0.5,0.5-0.9c0.9,0.1,1.9-0.3,2.8,0.2
		C57.6,35.4,56.7,35.8,55.8,36.2z"/>
	<path class="st31" d="M8.8,58.8c0.2,0.1,0.7-0.4,0.8,0.2c-1.7,0.5-3.4,1.2-5.3,0.5C4,58.8,4.6,58.8,5,58.9c1,0.2,2,0,3-0.3
		C8.3,58.6,8.6,58.6,8.8,58.8z"/>
	<path class="st32" d="M8,58.8c-0.9,0.5-1.9,0.7-3,0.4c-0.4-0.1-0.7-0.2-0.8,0.4c-0.4,0-0.8-0.1-1-0.5c-0.4-1.2,0.5-0.9,1.1-0.8
		c1.2,0.6,2.5,0,3.7,0.3c0.1,0.1,0.1,0.1,0.1,0.2C8.1,58.8,8.1,58.8,8,58.8z"/>
	<path class="st33" d="M2.3,55.8C2.9,57,3.1,57,3.8,56c0,0,0.1,0.1,0.1,0.1C4,56.4,4,56.6,4.1,56.9c0,0.2,0,0.5,0,0.7
		C4,57.8,4,58,3.8,58.1c-0.4,0-0.6,0.5-1.1,0.5C2.3,57.7,1.9,56.8,2.3,55.8z"/>
	<path class="st34" d="M12.1,40.5c0.9,0.3,1.7,0.9,2.7,1.1c0.5,0.1,0.9,0.4,0.7,1.2c-0.6-0.6-1.2-0.9-1.9-0.8
		c-0.5-0.3-1.2-0.4-1.5-1C12.1,40.8,12.1,40.6,12.1,40.5z"/>
	<path class="st35" d="M55.3,34.9c-0.8,1.3-2.3,1.7-3,3c-0.1,0.2-0.3,0.4-0.5,0.5c-0.2-0.2-0.5-0.3-0.6-0.6c0.9-1.2,2.2-2,3.2-3.1
		c0.1,0,0.1,0,0.2,0C54.8,34.8,55,34.9,55.3,34.9z"/>
	<path class="st36" d="M32.5,49c-0.2,0.2-0.4,0.6-0.8,0.4c-0.4-0.1-0.6,0.3-0.9,0.3c-0.4,0.1-0.7,0.1-0.7-0.5c0-0.1,0.1-0.2,0.2-0.3
		c0.5-0.3,0-0.5-0.1-0.8c-0.1-0.4-0.1-0.8,0.2-1.1c0.4-0.3,0.9-0.3,1.3,0C31.9,47.8,32,48.5,32.5,49z"/>
	<path class="st37" d="M2.8,58.6c0.3-0.3,0.5-0.6,1-0.5c1.3-0.8,2.6-0.9,4.1-0.9c0.2,0.1,0.3,0.2,0.3,0.5c0,0.1-0.1,0.2-0.2,0.3
		c-1.1,0.6-2.3,0.4-3.5,0.6c-0.4,0.3-1.3-0.8-1.3,0.5C3,59,2.9,58.8,2.8,58.6z"/>
	<path class="st38" d="M32.5,49c-0.2-0.2-1.2,0.4-0.6-0.6c0.2-0.3-0.3-0.3-0.4-0.4c-0.4-0.4-0.1-0.4,0.2-0.5c0.3-0.1,0.5,0,0.8,0.2
		c0.4,0.3,1.5-0.4,1.2,0.8C33.3,48.7,32.9,48.8,32.5,49z"/>
	<path class="st8" d="M65.3,48.8c-1.1,0.2-1.1-0.5-1-1.3c0.8,0.2,1.7,0.3,2.5,0.5c0.2,0.5,0,0.6-0.4,0.6
		C66.1,48.7,65.7,48.5,65.3,48.8z"/>
	<path class="st23" d="M60.8,46.7c-1.1,0.2-2.1-0.3-3.2-0.3c-0.5,0-0.6-0.3-0.6-0.7C58.5,45.5,59.6,46.2,60.8,46.7z"/>
	<path class="st39" d="M22.4,53.5c0.5,0,0.3,0.3,0.3,0.5c-0.9,0.6-1.7,1.1-2.8,1.3c-0.2-0.3,0.1-0.5,0.2-0.8c0.4-0.7,1.1-1,1.8-1.2
		C22.1,53.4,22.2,53.4,22.4,53.5z"/>
	<path class="st40" d="M51.3,37.9c0.3,0,0.5,0.2,0.5,0.5c-0.8,0.4-1.7,0.9-2.5,1.3c-0.2,0-0.3-0.2-0.4-0.4c0.3-1.1,1.1-1.4,2.1-1.6
		C51.1,37.8,51.2,37.9,51.3,37.9z"/>
	<path class="st41" d="M73.1,54.5c0,0.2,0,0.3,0,0.5c-1.9,0-3.9,0-5.8,0c0-0.1,0-0.2,0-0.2c0.5-0.7,1.3-0.3,1.9-0.4
		c0.4,0,0.8,0,1.2,0c0.7,0,1.4,0.1,2.1,0C72.7,54.3,73,54.3,73.1,54.5z"/>
	<path class="st42" d="M12.1,45c0,2,0.2,1.7-2,1.8c0-0.4,0.1-0.7,0.6-0.8C11.2,45.8,11.7,45.5,12.1,45z"/>
	<path class="st43" d="M3.8,52.5c0-0.1,0-0.2,0-0.3c0.2-0.7,0.5-1.3,1-1.8c0.3-0.2,0.5-0.1,0.8,0c0.1,0.1,0.1,0.2,0.1,0.3
		C5.4,52.2,4.9,52.6,3.8,52.5z"/>
	<path class="st44" d="M14.6,35.4c0.2,0.6,0.1,0.8-0.5,0.6c-0.7-0.1-1.3-0.3-2,0.1c-0.2,0-0.3,0-0.5,0c-0.4-0.6,0.4-0.4,0.5-0.8
		c0.2-0.1,0.4-0.2,0.5-0.2c0.4,0.2,0.8,0.2,1.2,0C14.1,35.3,14.3,35.4,14.6,35.4z"/>
	<path class="st45" d="M14.6,57.5c-0.2-0.2-0.3-0.3-0.5-0.5c0.5-0.9,1.4-1.1,2.4-1.2c0.1,0,0.2,0,0.4,0c0.2,0.1,0.4,0.2,0.6,0.4
		C16.5,57,15.4,57,14.6,57.5z"/>
	<path class="st46" d="M69.6,31.7c0.1-0.2,0.2-0.5,0.3-0.7c1,0.7,1,1-0.3,2c-0.2,0.2-0.3,0.1-0.5,0.1c-0.2-0.2-0.2-0.5-0.1-0.7
		C69,31.9,69.4,31.9,69.6,31.7z"/>
	<path class="st47" d="M30.2,49.3c0,0.4,0.2,0.5,0.5,0.4c0.3-0.1,0.6-0.5,1-0.2c-0.9,0.5-1.8,1-2.8,1.5c-0.2-0.2-0.5-0.2-0.6-0.5
		c0-0.1,0-0.2,0.1-0.3c0.3-0.3,0.7-0.4,1.1-0.7C29.7,49.4,29.9,49.1,30.2,49.3z"/>
	<path class="st48" d="M76.9,50.8c-0.3-0.5-1.4,0.1-1.3-1c0.8,0.3,1.5,0.5,2.3,0.8c0.3,0.1,0.7,0.2,0.7,0.7
		c-0.2,0.2-0.4,0.3-0.7,0.4c-0.2,0-0.4-0.1-0.6-0.2C77.2,51.2,77,51,76.9,50.8z"/>
	<path class="st49" d="M49,39.4c0.1,0.1,0.2,0.2,0.3,0.3c-0.6,0.4-1.2,0.8-1.8,1.2c-0.2,0-0.4,0-0.5-0.1c-0.1-0.1-0.1-0.2-0.1-0.3
		c0.3-0.9,1-1.1,1.8-1.2C48.8,39.3,48.9,39.4,49,39.4z"/>
	<path class="st50" d="M6,49.3c-0.2,0.7,0,1.1,0.8,1c0.4,0,0.8,0.1,1.2,0.2c0,0.1,0,0.2,0,0.3c0,0-0.1,0.1-0.1,0.1
		C7.3,51.3,6.7,51,6,51c-0.3-0.1-0.4-0.3-0.5-0.5l0,0c-0.3-0.3-0.3-0.6-0.3-1C5.5,49.4,5.8,49.3,6,49.3z"/>
	<path class="st51" d="M17.4,56.3c-0.2,0-0.4-0.1-0.5-0.3c0.2-0.6,0.8-0.7,1.2-0.9c0.3-0.1,0.7-0.2,1-0.2c0.3,0.1,0.6,0.2,0.5,0.6
		C18.9,55.8,18.1,56,17.4,56.3z"/>
	<path class="st52" d="M69.1,32.2c0,0.3,0,0.5,0,0.8c-0.2,0.3-0.6,0.4-0.8,0.8c-0.3,0.1-0.5,0.2-0.8,0.2c-0.2-0.3-0.3-0.6-0.3-1
		C67.9,32.6,68.4,32.1,69.1,32.2z"/>
	<path class="st53" d="M46.5,41.5c-0.3,0.1-0.7,0.2-1,0.3c-0.3,0-0.5-0.1-0.6-0.4c0-0.1,0-0.2,0.1-0.3c0.3-0.4,0.6-0.6,1.1-0.6
		c0.3,0,0.6,0,0.9,0.3l0,0C47.1,41.2,46.6,41.1,46.5,41.5z"/>
	<path class="st8" d="M51.5,29.2c0.1,0.5,0.2,0.9,0.4,1.4C51,30.2,51,30.2,51,28.9C51.2,28.9,51.4,29,51.5,29.2z"/>
	<path class="st4" d="M65.3,48.8c0.3-0.6,1.4,0.2,1.5-0.8c0.4,0.1,0.8,0.2,1.3,0.3C67.3,48.9,66.3,48.7,65.3,48.8z"/>
	<path class="st54" d="M77.4,52.8c0-0.3,0-0.5,0-0.8c-0.1-0.1-0.1-0.2,0-0.3c0.2-0.1,0.3-0.1,0.5-0.1c0.3,0,0.6,0.1,0.8,0.4
		C78.4,52.6,78,52.8,77.4,52.8z"/>
	<path class="st55" d="M45,30.7c-0.3,0.1-0.5,0.2-0.8,0.3c-0.5-0.5-0.1-0.8,0.3-1C45,29.9,45,30.3,45,30.7z"/>
	<path class="st56" d="M45,41.3c0.2,0.2,0.4,0.3,0.5,0.5c-0.2,0.2-0.3,0.3-0.5,0.5c-0.2-0.2-0.8-0.2-0.5-0.8
		C44.6,41.3,44.7,41.1,45,41.3z"/>
	<path class="st57" d="M78.7,52c-0.3,0-0.6,0-0.7-0.2c-0.1-0.1-0.1-0.1-0.1-0.2c0-0.1,0.1-0.1,0.1-0.1c0.2-0.3,0.5-0.2,0.8-0.2
		C78.8,51.5,78.8,51.8,78.7,52z"/>
	<path class="st58" d="M76.2,53.8c0-0.9,0.7-0.6,1.2-0.8C77.1,53.5,76.7,53.7,76.2,53.8z"/>
	<path class="st55" d="M5.3,49.5c0.2,0.3,0.3,0.6,0.3,1c-0.3,0.2-0.5,0.2-0.8,0C4.8,50.1,4.9,49.8,5.3,49.5z"/>
	<path class="st59" d="M61.3,25.4c-0.2,0.1-0.5,0.2-0.5-0.2c0-0.4,0-0.9,0-1.3C61.2,24.3,61.1,24.9,61.3,25.4z"/>
	<path class="st6" d="M68.4,33.7c0-0.5,0.3-0.7,0.8-0.8c0.2,0,0.3,0,0.5,0C69.3,33.3,68.8,33.4,68.4,33.7z"/>
	<path class="st60" d="M19.6,55.5c-0.2-0.2-0.3-0.3-0.5-0.5c0-0.2,0.2-0.3,0.3-0.4c0.3-0.1,0.6-0.1,0.9,0.2
		c-0.2,0.2-0.3,0.4-0.5,0.5C19.8,55.4,19.7,55.4,19.6,55.5z"/>
	<path class="st8" d="M46.5,41.5c0-0.4,0.4-0.5,0.5-0.7c0.2,0,0.4,0,0.5,0.2C47.3,41.3,46.8,41.2,46.5,41.5z"/>
	<path class="st61" d="M47.5,33.2c0-0.5,0.4-0.5,0.8-0.5c0.2,0.5-0.2,0.4-0.5,0.5C47.7,33.2,47.6,33.2,47.5,33.2z"/>
	<path class="st62" d="M61.1,34.7c0.5-0.4,1.1-0.1,1.7-0.2C62.3,34.9,61.7,34.6,61.1,34.7z"/>
	<path class="st63" d="M28.4,50.5c0.3,0,0.5,0.2,0.5,0.5c-0.2,0-0.3,0-0.5,0c-0.2,0-0.4-0.1-0.5-0.3c0.1-0.1,0.1-0.2,0.2-0.2
		C28.2,50.5,28.3,50.5,28.4,50.5z"/>
	<path class="st64" d="M26.6,52.1c0.3-0.4,0.6-0.5,1-0.5C27.4,51.9,27.2,52.2,26.6,52.1z"/>
	<path class="st65" d="M69.3,30.7c-0.4,0.4-0.8,0.4-1.2,0C68.6,30.7,68.9,30.7,69.3,30.7z"/>
	<path class="st66" d="M13.8,35.2c-0.4,0.4-0.8,0.3-1.2,0C13,35.2,13.4,35.2,13.8,35.2z"/>
	<path class="st2" d="M53,51c-0.9-0.5-1.9-0.2-2.8-0.5c-2-0.4-3.9-0.9-5.9-1.2c-0.8-0.1-1.6-0.6-2.4-0.5c-0.5-0.4-1.2-0.3-1.5-1
		c-0.1-0.3-0.6-0.5-0.3-0.8c0.1-0.1,0.5-0.1,0.7-0.1c3.4,0,6.8,0,10.2,0c0.5,0,1,0.1,1.5,0c1.7-0.3,3,0.8,4.5,1
		c0.3,0.1,0.6,0.1,0.9,0.2c1.7,0.6,3.5,0.6,5.1,1.2c1,0.3,2,0.2,3,0.7c0.5,0.3,1.1,0.2,1.7,0.6c0.6,0.5,1.3,0.2,1.9-0.3
		c1,0.3,2,0.6,3,1c0.5,0.2,0.9,0.2,1.3-0.3c0,0,0,0,0,0c0.3,0.2,0.7,0,0.8,0.4c0.1,0.5-0.2,0.7-0.5,0.9c-0.3,0.2-0.4,0.6-0.8,0.7
		c-3.7,1.2-7.3,0.5-11-0.4c-1.4-0.3-2.8-0.5-4.2-0.6C56.5,51.9,54.7,51.7,53,51z"/>
	<path class="st67" d="M20.9,44.7c2-0.4,3.9-0.9,5.5-2.3c0.1-0.1,0.1-0.3,0.1-0.5c1.1,0,2.3,0,3.4,0c0.3,0,0.5,0,0.6,0.3
		c0,0.2-0.2,0.4-0.4,0.4c-1.9,0.1-0.5,0.7-0.2,1.2c0.2,0.3,0.7,0.3,0.7,0.8c-0.5,0.4-1.1,0.4-1.8,0.2c-0.1,0-0.2-0.1-0.2-0.1
		c-1.1-1.3-1.4-1.3-2.7-0.1c-0.1,0.1-0.2,0.1-0.3,0.2c-1.2,0-2,1-3.1,1.3c-0.5,0.1-0.9,0.4-1.3,0C20.6,45.8,20.5,45.3,20.9,44.7z"/>
	<path class="st68" d="M42.7,39.2c-0.1,0.1-0.2,0.4-0.3,0.4C41,40,41.6,40.9,42,41.7c-0.9-0.5-1.9-0.8-2-2c-0.1-0.7,0.2-0.4,0.7-0.6
		c0.7-0.4,1.5,0,2.1-0.6c0.3-0.4,0.8-0.7,1.1-1c0.4-0.4,0.6-1.2,1.3-0.2c0.4,0.6,1-0.4,1.4-0.6c1.4-0.8,2.9-1.2,4.4-1.7
		c0.2,0.1,0.2,0.3,0.2,0.5c0,0.1-0.1,0.2-0.2,0.3c-0.8,0.2-1.2,1-2,1.2c-1.3,0.7-2.7,1.2-4.1,1.8C44.2,38.8,43.4,38.8,42.7,39.2z"/>
	<path class="st69" d="M28.4,44.7c0.7,0,1.3,0,2,0c0,0.9,0.7,0.9,1.3,1c1.1,0.1,2.1,0.5,3,1c-0.8,0.2-1.5-0.4-2.3,0
		c-1.5-0.2-2.9-0.5-4.4-0.5c-0.6,0-1.3-0.1-1.7,0.4c-1.1,1.2-2.4,1.1-3.8,1c-0.1,0-0.2-0.1-0.3-0.2c-0.1-1.1,0.4-1.7,1.8-1.9
		c0.7-0.1,1.1-0.4,1.6-0.8l0,0C26.6,44.2,27.5,44.2,28.4,44.7z"/>
	<path class="st70" d="M51,35.4c0-0.2,0-0.3,0-0.5c0-0.1,0-0.2,0-0.2c0.5-0.4,1.1-0.3,1.6-0.4c0.9-0.2,1.6-0.7,2.4-1.1
		c1.4,0.5,2.9,0.1,4.3,0.2c0.7,0,1.3,0,2,0c-1.2,0.6-2.5,0.2-3.8,0.2c-1.2,0-2,0.7-3,1c0,0,0,0,0,0C53.5,35.4,52.4,36.3,51,35.4z"/>
	<path class="st68" d="M55,33.2c-1,1.3-2.5,1.5-4,1.5c0.5-0.8,1.2-1.5,2-2c0.3,0.8,0.7,1,1.4,0.3C54.7,32.6,55,32.7,55,33.2z"/>
	<path class="st71" d="M40.5,47.8c0.5,0.3,1.2,0.3,1.5,1c-0.4,0-0.8,0-1.3,0c0,0,0,0,0,0c-0.6-0.4-1.5,0-2-0.8
		c-0.6-0.4-1.4-0.2-2-0.5c-0.2-0.2-0.3-0.3-0.5-0.5C37.7,47,39,47.5,40.5,47.8z"/>
	<path class="st9" d="M37.4,38.2c0.9,0,1.6-0.9,2.6-0.7c0.3,0.1,0.7-0.1,0.7,0.4c0,0.4-0.4,0.4-0.6,0.4
		C39.1,38.1,38.3,38.7,37.4,38.2z"/>
	<path class="st12" d="M49,31.4c-0.4-0.2-0.7-0.3-1.4-0.6C48.5,30.6,49,30.5,49,31.4C49,31.4,49,31.4,49,31.4z"/>
	<path class="st72" d="M18.1,48c0.9-0.1,1.2-1.1,2-1.3c0.6,0.6,1.6,0.4,2.3,0.8l0,0c0,0,0.1,0.1,0.1,0.1c0,0.1-0.1,0.2-0.2,0.3
		c-0.5,0.2-0.7,0.6-1.1,1c-0.1,0.1-0.2,0.2-0.3,0.2c-0.3,1.1-0.9,1.6-2.1,1.5c-1.2-0.1-1.8,1.2-2.9,1.6c-0.6,0.2-1.2,0.2-1.8,0
		c-0.6-0.5-1.4-0.2-2-0.6C12,50.9,12.6,51.1,13,51c1.3-0.4,2.5-0.7,3.8-1.2c0.4-0.2,0.8-0.4,1.1-0.8c0.1-0.1,0.1-0.2,0.2-0.3
		c0.2-0.1,0.2-0.3,0-0.5C18,48.2,18,48.1,18.1,48z"/>
	<path class="st73" d="M22.4,47.5c-0.2,0-0.5-0.1-0.7,0c-0.9,0.4-1.3,0-1.5-0.8c0.1-0.7-0.1-1.6,0.8-2c0.1,1.7,0.8,2,2.5,0.7
		c0.8-0.6,1.4-0.7,2.2-0.7c-0.2,0.8-0.4,1.3-1.4,1.1C23.3,45.7,22.5,46.5,22.4,47.5z"/>
	<path class="st74" d="M11.6,50.8c0.7-2.4,2.8-1.9,4.5-2.3c0.1,0.1,0.1,0.2,0.1,0.3c-0.3,0.3-0.2,0.6-0.1,0.9
		c-1.2,0.8-2.6,1.2-4,1.3C11.9,51,11.7,50.9,11.6,50.8z"/>
	<path class="st75" d="M8,50.8c0.4,0,0.8,0,1.3,0c0.5,0.3,1.1,0.4,1.6,0.6c1.2,0.5,1.2,0.6,0.3,1.3c-0.9,0.7-1.8,1.5-3.1,1.2
		C7.8,53.5,8,53.3,8.2,53c0.9-1.1,0.9-1.1-0.3-1.7C7.9,51.1,7.9,50.9,8,50.8L8,50.8z"/>
	<path class="st9" d="M16.1,48.8c0-0.1,0-0.2,0-0.3c0.5-1,1.4-0.3,2-0.5c0,0.1,0,0.2,0,0.3c0.1,0.2,0.1,0.3,0,0.5l0,0
		c-0.5,0.4-0.9,0.8-1.7,0.6C16.1,49.3,16.6,48.7,16.1,48.8z"/>
	<path class="st72" d="M10.8,51.5c-0.6,0-1.2-0.2-1.5-0.8c0.3,0,0.5,0,0.8,0c0.3,0.3,0.7,0,1,0.2c0.1,0.2,0.1,0.4,0,0.5
		C11,51.6,10.9,51.6,10.8,51.5z"/>
	<path class="st75" d="M11.1,51c-0.3,0-0.7,0.1-1-0.3c0.5,0,1,0,1.5,0c0.2,0,0.3,0,0.5,0C11.9,51.4,11.5,51.3,11.1,51z"/>
	<path class="st76" d="M14.1,40.7c-0.8,0.1-1.2-0.8-2-0.8c0-0.1,0-0.2,0-0.3c0.3,0,0.7,0,1,0C13.3,40.1,14.1,40.1,14.1,40.7z"/>
	<path class="st59" d="M61.1,26.6c0,0.3,0,0.5,0,0.8c-1.4-0.3-2.8-0.1-4.2-0.1c-2.2,0-2.5-0.4-2.1-2.6c0.4-0.4,0.2-0.9,0.2-1.3
		c0-2,1.5-3.7,3.5-4c-0.2,0.3-0.4,0.7-0.8,0.8c-0.9,0.3-0.9,0.8-0.8,1.6c0.1,0.7,0.4,1,1,0.9c1.2-0.2,1.6,0.4,1.6,1.5
		C59.6,25.2,60,26.1,61.1,26.6z"/>
	<path class="st73" d="M54.8,24.6c0,0.3,0,0.7,0,1c-0.1,0.9,0.3,1.2,1.1,1.3c0.9,0,1.9,0.2,2.7,0c1-0.2,1.7,0.1,2.4,0.5
		c0,0.5,0,1,0,1.5c-0.4,0-0.5-0.2-0.6-0.5c-0.3-0.6-0.6-1-1.3-0.4c-0.4,0.3-1.1,0.1-1.6,0.1c-0.8,0.1-1.7-0.3-2.3,0.2
		c-0.9,0.6-1,0.1-0.9-0.5C54.4,26.7,54.4,25.6,54.8,24.6z"/>
	<path class="st6" d="M69.1,32.2c-0.5,0.4-1,0.9-1.8,0.8c-0.3,0-0.5,0-0.8,0c0.9-0.7,1.8-1.3,3-1.3C69.5,31.9,69.4,32.1,69.1,32.2z"
		/>
	<path class="st6" d="M62.8,33.4c1.2-0.5,2.6,0,3.8-0.5C65.5,34.1,64.2,33.9,62.8,33.4z"/>
	<path class="st6" d="M38.7,48c0.6,0.5,1.6-0.2,2,0.8C39.9,49,39,49.3,38.7,48z"/>
	<path class="st72" d="M49,36.7c0.8,0,1-1.4,2-1C51,37.5,51,37.5,49.1,38c-0.6,0.2-0.9,0.6-1.2,1c-0.1,0.1-0.2,0.2-0.3,0.2
		c-0.8,0.5-1.6,0.8-2.5,1.2c-0.5-0.1-0.7,0.4-1.2,0.3c0-0.4,0-0.7,0.4-0.9c0.2-0.1,0.6-0.1,0.5-0.5C44.8,38.8,44.3,39,44,39
		c-0.4,0-0.9,0.2-1.3,0.2c0.6-0.7,1.5-0.4,2.3-0.5C46.5,38.4,47.8,37.6,49,36.7z"/>
	<path class="st44" d="M44,40.7c0.4-0.1,0.3-1,1-0.5c0.3,0.3,0.3,0.7,0,1c0,0,0,0,0,0c-0.2,0.1-0.3,0.1-0.5,0.2c-0.1,0-0.3,0-0.4,0
		c-0.3,0-0.7,0.2-0.7-0.2C43.3,40.9,43.9,41,44,40.7z"/>
	<path class="st52" d="M32.4,47.7c-0.3,0.1-0.6,0.1-0.8-0.2c-0.3-0.4-0.8-0.2-1.2-0.2c-0.2,0.2-0.4,0.3-0.6,0.3
		c-0.7-0.2-0.8,0.6-1.3,0.7c-0.5-0.4-0.9-0.1-1.4,0c-0.9,0.3-1.7,0.8-2.6,1.1c-1,0-1.1,1.2-1.9,1.4c-0.7,0.4-1.3,0.6-1.7-0.3
		c-0.1-0.6-0.2-1.2,0.2-1.7c0.4-0.3,0.7-0.8,1.3-1l0,0c0.3-0.2,0.7-0.3,1.1-0.2c1.2,0.4,2.3-0.2,3.3-0.7c1.5-0.6,3.1-0.4,4.6-0.2
		c0.4,0.1,0.8,0.2,1,0.6C32.4,47.4,32.4,47.5,32.4,47.7z"/>
	<path class="st77" d="M32.4,47.3c-1.9-0.6-3.9-0.9-5.7,0.1c-1.4,0.7-2.9,0.4-4.3,0.5c0-0.1,0-0.2,0-0.3c1.7,0.1,3.1-1,4.6-1.4
		c1.7-0.5,3.8-0.3,5.5,0.7c0.2,0.1,0.4,0.3,0.5,0.4C32.8,47.2,32.6,47.2,32.4,47.3z"/>
	<path class="st10" d="M53,51c3.3,0.7,6.6,0.9,9.9,1.5c2.6,0.5,5.2,0.9,7.9,0.8c1-0.1,1.8-0.7,2.8-0.5c0.2-0.2,0.4-0.1,0.5,0
		c-0.5,1.1-1.7,0.8-2.6,1.2c-0.7,0.1-1.5,0.1-2.2,0.3c-0.6,0.1-1.3,0-1.9,0.1c-0.8,0.2-1.4-0.8-2.2-0.4c-1.3-0.2-2.7-0.3-4-0.5
		c-0.1-0.3-0.5-0.2-0.9-0.5c0.7,0,1.3,0,1.9,0c-1.1,0.2-2.1-1-3.2-0.2c-0.2,0.2-0.4-0.3-0.6-0.4c-0.6-0.2-1.2-0.6-1.5,0.3
		c-0.1,0.1-0.2,0.1-0.3,0c-0.1-0.3-0.4-0.7-0.7-0.7c-1.2,0.1-2.1-0.6-3.1-0.8C53,51.2,53,51.1,53,51z"/>
	<path class="st78" d="M50.3,52c-0.1-0.2-0.4-0.2-0.6-0.3c-0.1,0-0.2-0.1-0.1-0.2c0,0,0.1,0,0.2-0.1c0.2,0,0.4,0,0.6,0
		c0.2,0,0.5,0,0.5,0.2C50.8,52.1,50.5,52,50.3,52z"/>
	<path class="st61" d="M56.8,52.8c0.1,0,0.2,0,0.3,0c-0.4,0.4-0.8,0.2-1.3,0.2C56.1,52.7,56.5,52.8,56.8,52.8z"/>
	<path class="st79" d="M22.4,53.5c-0.2,0-0.3,0-0.5,0c-0.6-0.1-0.4-0.6-0.6-0.9c0-0.8,0.8-0.9,1.2-1.3c0.6-0.2,1.2-0.7,1.9-0.3
		c0.2,0.4,0.2,0.8-0.1,1.2C23.5,52.7,23,53.1,22.4,53.5z"/>
	<path class="st64" d="M24.1,52.3c0-0.4,0-0.8,0-1.3c-0.1-0.1-0.1-0.1-0.1-0.2c0-0.1,0-0.1,0.1-0.1c0.3-0.1,0.7,0,1-0.1
		c0.9-0.1,1.7-0.7,2.5,0.1C26.5,51.3,25.4,52.1,24.1,52.3z"/>
	<path class="st80" d="M27.6,50.8c-0.9-0.3-1.7-0.2-2.5,0.2c-0.2-0.3-0.2-0.6,0.1-0.8c1-0.4,1.9-1.2,3-0.7c0.2,0.4,0,0.8-0.1,1.2
		c-0.1,0-0.2,0-0.2,0C27.8,50.8,27.7,50.8,27.6,50.8z"/>
	<path class="st58" d="M65.3,54c0.3-0.8,0.8-0.6,1.2-0.2c0.2,0.2,0.4,0.5,0.8,0.5c0.1,0.1,0.1,0.1,0.1,0.2c0,0.1,0,0.1-0.1,0.1
		C66.6,54.6,65.9,54.5,65.3,54z"/>
	<path class="st81" d="M67.4,54.5c0-0.1,0-0.2,0-0.3c0.6-0.4,1.3-0.2,2-0.3c0.2,0.2,0.2,0.3,0,0.5c-0.7,0.1-1.3,0.2-2,0.2
		C67.4,54.7,67.4,54.6,67.4,54.5z"/>
	<path class="st82" d="M16.6,56c-0.9,0.2-1.7,0.6-2.5,1c-0.5-0.1-1,0.2-1.5,0.3C11.9,56.4,13,56,13.3,56c0.8,0.1,0.7-0.6,1.1-0.8
		c0.2-0.1,0.4-0.2,0.6-0.3c0.2-0.1,0.4-0.2,0.6-0.2c0.2,0,0.3,0,0.5,0.1c0.1,0.1,0.2,0.3,0.2,0.4C16.4,55.5,16.7,55.7,16.6,56z"/>
	<path class="st83" d="M14.6,55.3c0,0.2-0.4,0.2-0.2,0.5c0.1,0.1,0.5,0.1,0.2,0.4c-0.2,0.2-0.3,0.2-0.6,0.1
		c-0.9-0.3-1.3,0.2-1.4,1.1c-0.1,0-0.2,0-0.2,0c-0.4,0.1-0.8-0.1-1.2-0.1c-0.1,0-0.2-0.1-0.3-0.1c-0.6-0.4-0.3-0.9,0.1-1.1
		C12.1,55.6,13.3,55,14.6,55.3z"/>
	<path class="st84" d="M8,58.8c0-0.1,0-0.2,0-0.2c-0.2-0.3-0.2-0.5,0-0.8l0,0c0.6-0.6,1.3-0.7,2.1-1c0.3,0,0.7,0,0.9,0.2l0,0
		c0.3,1-0.8,0.5-1,1c-0.6,0-1.2-0.1-1.3,0.7C8.5,58.8,8.3,58.8,8,58.8z"/>
	<path class="st85" d="M10.1,58.1c-0.1-0.7,1.1-0.3,1-1c0.5-0.1,0.9-0.3,1.3,0.3C11.7,58.1,10.8,57.8,10.1,58.1z"/>
	<path class="st81" d="M71.6,53.8c0.8-0.5,1.8-0.4,2.5-1c0.2-0.8,0.9-0.8,1.6-1c0.2,0,0.4,0.1,0.5,0.2c0.1,0.3,0.1,0.5-0.1,0.7
		c-0.9-0.1-1.7-0.3-1.8,1.1c0,0.3-0.8,0.5-1.2,0.7c-0.3,0-0.5,0-0.8,0c-0.3-0.2-0.7,0-0.9-0.4C71.5,54,71.5,53.9,71.6,53.8z"/>
	<path class="st58" d="M76.2,52.8c0-0.3,0-0.5,0-0.8c0.3-0.8,0.8-0.6,1.3-0.3c0,0.1,0,0.2,0,0.3C77.1,52.4,76.8,52.9,76.2,52.8z"/>
	<path class="st1" d="M8,50.8c0,0.2,0,0.3,0,0.5c0.4,0.5,0.4,1,0,1.4c-1.2,1.2-2.7,1.9-4.3,2.1c-0.1,0.2-0.3,0.4-0.4,0.6
		c-0.8-1,0.3-1.7,0.4-2.6c0.3,0.3,0.6,0.5,1,0.2c0.2-0.2,0.5-0.4,0.8-0.6c0.7-0.3,1-0.6,0.3-1.3c-0.1-0.1,0-0.2,0.1-0.3
		C6.7,50.7,7.4,51,8,50.8z"/>
	<path class="st5" d="M3.8,54.8c1.1-0.6,2.3-1.2,3.4-1.8C8,52.6,8.1,52,8,51.3c0.5,0,1.2-0.1,1.4,0.5C9.7,52.4,9,52.6,8.7,53
		C8.5,53.2,8,53.3,8,53.8c0,0-0.1,0.1-0.1,0.1c-0.6,0.4-1.4,0.5-2,1c-0.1,0.1-0.2,0.1-0.3,0.2c-0.6,0.3-1.1,1-1.9,0.5
		C3.8,55.3,3.8,55,3.8,54.8z"/>
	<path class="st86" d="M6,50.8c1,1.1,1,1.1-0.4,1.9c-0.3,0.2-0.6,0.4-0.9,0.7c-0.8,0.6-1.1,0.3-1-0.6c0-0.1,0-0.2,0-0.3
		c1-0.3,1.7-0.9,1.8-2C5.7,50.6,5.9,50.7,6,50.8z"/>
	<path class="st87" d="M3.8,55.5c0.8,0.1,1.3-0.7,2-0.8c0.1,1.1-0.6,1.6-2,1.3c0,0,0,0,0,0C3.8,55.9,3.8,55.7,3.8,55.5z"/>
	<path class="st12" d="M75.7,52c-0.5,0.3-1,0.5-1.5,0.8c-0.2,0-0.3,0-0.5,0c-0.1-0.3-0.2-0.6,0.2-0.7c1.2-0.3,0.7-0.7,0.1-1.1
		c1-0.3,2,0.1,3-0.3c0.3,0,0.5,0.2,0.5,0.5C76.9,51.7,76.1,51.4,75.7,52z"/>
	<path class="st27" d="M8,57.8c0,0.3,0,0.5,0,0.8c-1.2,0.2-2.3,0.5-3.5,0C5.6,57.9,6.9,58.1,8,57.8z"/>
	<path class="st69" d="M3.8,56c0.8-0.2,1.8-0.1,2-1.3c0,0,0,0,0,0c0.4-0.3,0.8-0.2,1.2-0.3c0.2,0,0.4,0.1,0.6,0.2
		c0.2,0.4,0,0.7-0.3,0.8c-0.7,0.3-1.2,1-1.8,1.5c-0.6,0.2-1.1,0.2-1.6-0.2C3.8,56.6,3.8,56.3,3.8,56z"/>
	<path class="st35" d="M8,57.3c-1.4,0.3-2.8,0.5-4.3,0.8c0-0.2,0-0.3,0-0.5c0.6-0.6,1.5-0.2,2-0.8c0.2-0.1,0.3-0.2,0.5-0.2
		c0.5,0,1.1-0.1,1.6,0.1c0.2,0.1,0.3,0.3,0.2,0.5C8.1,57.2,8.1,57.2,8,57.3z"/>
	<path class="st81" d="M5.8,56.8c-0.4,0.9-1.3,0.7-2,0.8c0-0.3,0-0.5,0-0.8c0.6,0,1.2,0,1.8,0C5.6,56.7,5.7,56.7,5.8,56.8z"/>
	<path class="st88" d="M47.8,39c0.2-0.8,0.6-1.3,1.5-1.3c0.5,0,0.9-0.3,1.4-0.5c0.2-0.1,0.4-0.3,0.1-0.4C49.7,36.1,51,36,51,35.7
		c0-0.1,0-0.2,0-0.2c1.3,0.3,2.3-0.5,3.5-0.8c-0.8,1.3-2.1,2.3-3.3,3.3c-0.1,0-0.2,0-0.2,0c-0.6-0.3-0.9,0.3-1.4,0.5
		c-0.5,0.2-0.8,0.7-1.4,0.8C48.1,39.2,47.9,39.1,47.8,39z"/>
	<path class="st89" d="M29.7,47.3c0.3,0,0.5,0,0.8,0c0,0.4,0,0.8,0,1.2c0.4,0.3,0.4,0.5,0,0.8c-0.1,0-0.2,0-0.2,0
		c-0.2,0.2-0.3,0.3-0.5,0.5c-0.5-0.1-1.1-0.2-0.5-1c0.3-0.4,0.2-0.9,0.3-1.3C29.5,47.4,29.6,47.3,29.7,47.3z"/>
	<path class="st90" d="M30.4,49.3c0.2-0.2,0.2-0.5,0-0.8c0.3,0,0.7-0.1,0.6,0.3C31,49.2,30.7,49.2,30.4,49.3z"/>
	<path class="st83" d="M10.1,57.1c-0.6,0.4-1.3,0.6-2,0.8c0-0.2,0-0.3,0-0.5c0,0,0,0,0,0C8.7,56.8,9.2,55.9,10.1,57.1z"/>
	<path class="st91" d="M21.4,52.8c0.6-0.1,0.3,0.6,0.5,0.8c-0.4,0.5-1.5,0.3-1.5,1.2c-0.3,0-0.7,0-1,0c-0.2,0.1-0.3,0.1-0.5,0.1
		c-0.3-0.1-0.7-0.1-0.7-0.5c0-0.3,0.3-0.4,0.6-0.6c0.5-0.3,1.1-0.5,1.6-0.9C20.6,52.7,21,52.5,21.4,52.8z"/>
	<path class="st92" d="M48.3,39c0.6-0.3,1.1-0.7,1.7-1c0.4-0.2,0.7-0.4,1.1,0c-0.8,0.3-1.6,0.7-2,1.5c-0.1,0-0.2,0-0.2,0
		C48.6,39.2,48.1,39.4,48.3,39z"/>
	<path class="st58" d="M71.6,53.8c0,0.1,0,0.2,0,0.3c-0.3,0.4-0.9,0.2-1.3,0.5c-0.3,0.3-0.7,0.1-1,0c0-0.2,0-0.3,0-0.5
		C70.1,53.6,70.9,53.8,71.6,53.8z"/>
	<path class="st22" d="M70.4,54.5c0.3-0.6,0.8-0.5,1.3-0.5c0.3,0.2,0.5,0.3,0.8,0.5C71.7,54.8,71,54.7,70.4,54.5z"/>
	<path class="st93" d="M16.6,56c-0.2-0.3-0.5-0.4-0.5-0.7c0.6-0.6,1.2-0.7,1.9-0.4c0.1,0.1,0.1,0.2,0.1,0.4
		c-0.3,0.4-0.8,0.5-1.3,0.7C16.8,56,16.7,56,16.6,56z"/>
	<path class="st94" d="M29.7,47.5c-0.1,0.6,0.2,1.2-0.5,1.7c-0.4,0.3,0.7,0,0.4,0.6c-0.4,0.2-0.8,0.3-1.2,0.5c-0.3-0.3,0-0.5,0-0.8
		c-0.1-0.3-0.2-0.7,0-1C29,48.5,29,47.4,29.7,47.5z"/>
	<path class="st64" d="M28.7,49.5c-0.1,0.3-0.2,0.5-0.3,0.8c0,0.1,0,0.2,0,0.2c-0.1,0.1-0.2,0.2-0.3,0.2c0-0.4,0-0.8,0-1.2
		C28.3,49.4,28.5,49.4,28.7,49.5z"/>
	<path class="st7" d="M75.7,52c0.3-0.9,1.1-0.7,1.8-0.8c0.2,0.1,0.3,0.2,0.5,0.3c0,0.1,0,0.2,0,0.3c-0.2,0-0.3,0-0.5,0
		c-0.4,0.1-0.9-0.2-1.3,0.3C76,52,75.8,52,75.7,52z"/>
	<path class="st95" d="M48.3,39c0.2,0.2,0.3,0.3,0.5,0.5c-0.7,0.3-1.6,0.3-1.8,1.3c-0.3,0-0.7,0-1,0c-0.3-0.6,0.1-0.9,0.6-1.1
		c0.4-0.1,0.7-0.3,0.9-0.7c0.1,0,0.2,0,0.2,0C47.9,39,48.1,39,48.3,39z"/>
	<path class="st96" d="M18.1,55.3c0-0.1,0-0.2,0-0.3c0.1-0.6,0.4-0.4,0.8-0.3c0.2,0,0.3,0,0.5,0c-0.1,0.1-0.2,0.2-0.3,0.3
		C18.8,55.1,18.4,55.2,18.1,55.3z"/>
	<path class="st81" d="M47.5,39c0,0.4-0.1,0.7-0.6,0.8c-0.6,0.1-0.9,0.4-0.9,1c-0.3,0.2-0.7,0.3-1,0.5c0-0.3,0-0.7,0-1
		C45.8,39.8,46.7,39.4,47.5,39z"/>
	<path class="st87" d="M28.4,44.7c-0.9,0-1.8,0-2.8,0c0.2-1.1,1.1-1.2,1.9-1.2C28.2,43.5,28.5,44.1,28.4,44.7z"/>
	<path class="st97" d="M49,36.7c-1.1,1.1-2.2,2.3-4,2c0.1-0.1,0.1-0.3,0.2-0.3C46.5,37.8,47.7,37.3,49,36.7z"/>
	<path class="st98" d="M14.1,52c0.7,0,1.3,0,2,0c0.1,0.1,0.1,0.2,0.2,0.3c-0.3,1-1.3,0.9-2,1.3c-0.7,0.4-1.6,0.5-2.1,1.2
		c-0.2,0.2-0.4,0.2-0.7,0.2c-1-0.1-2,0.5-2.9-0.2c-0.1-0.1-0.1-0.2-0.1-0.3c0.2-0.4,0.5-0.8,0.9-0.8c1.1,0,1.8-0.7,2.5-1.4
		C12.5,51.8,13.3,51.9,14.1,52z"/>
	<path class="st99" d="M14.1,52c-1.3,0.2-2.5,0.5-3.2,1.8C10.8,54,10.4,54,10.3,54c-0.9-0.3-1.3,0.2-1.7,0.8c-0.3,0.3-0.7,0.3-1,0
		c-0.2,0-0.3,0-0.5,0c-0.1-0.8,0.7-0.6,1-1c0,0,0,0,0,0c1.4-0.2,2.4-1,3.5-1.9c-0.2-0.3-0.6,0-0.8-0.4c0.1,0,0.2,0,0.3,0
		c0.3-0.3,0.7-0.3,1,0C12.7,51.7,13.6,51,14.1,52z"/>
	<path class="st13" d="M12.1,51.5c-0.3,0-0.7,0-1,0c0-0.2,0-0.3,0-0.5c0.3,0,0.7,0.1,1-0.3c1.4-0.1,2.7-0.7,4-1.3
		c-0.1-0.2,0-0.3,0.3-0.3c0.7,0.2,1.1-0.7,1.8-0.5c0.1,1.1-0.8,1.2-1.5,1.4C15.1,50.7,13.6,51.1,12.1,51.5z"/>
	<path class="st14" d="M16.1,52.3c0-0.1,0-0.2,0-0.3c0.9-0.9,1.7-1.9,3.2-1.8c0.7,0.1,1.1-0.1,1.1-0.9c0-0.5,0.3-0.6,0.7-0.6
		c0,0.7,0,1.3,0,2c-0.2,0.2-0.4,0.3-0.7,0.3c-1.2,0.1-2,0.9-3.1,1.1C16.9,52.3,16.5,52.6,16.1,52.3z"/>
	<path class="st14" d="M22.4,47.8c-0.3,0.5-0.6,0.9-1.3,1C21.4,48.2,21.6,47.6,22.4,47.8z"/>
	<path class="st20" d="M18.1,48.8c0-0.2,0-0.3,0-0.5c0.2,0,0.6,0,0.5,0.3C18.6,48.9,18.3,48.7,18.1,48.8z"/>
	<path class="st2" d="M16.3,49.3c-0.1,0.1-0.2,0.2-0.3,0.3c-0.3,0-0.6,0.1-0.8-0.1c0.1-0.5,0.7-0.3,0.8-0.6c0.2,0,0.4-0.1,0.5,0.1
		C16.6,49,16.4,49.1,16.3,49.3z"/>
	<path class="st61" d="M24.4,49.3c1.1-0.7,2.3-1.1,3.4-1.6c0.7-0.3,0.5,0.2,0.6,0.6c0,0.1-0.1,0.1-0.1,0.2c-0.8,1.1-2.9,1.9-4.2,1.7
		C23.9,49.7,24.1,49.5,24.4,49.3z"/>
	<path class="st100" d="M20.4,50.8c0.3,0,0.5,0,0.8,0c0.5,0.2,0.9,0.2,1.3-0.3c0.2,0,0.1,0.6,0.6,0.2c0.3-0.3,0.7-0.7,1.3-0.5
		c0.1,0.2,0.1,0.3-0.1,0.5c0,0.1,0,0.2,0,0.3c-0.6,0.2-1.1,0.5-1.8,0.5c-0.8,0.3-1.5,0.6-2.4,0.7c-0.2-0.2-0.2-0.5-0.2-0.7
		C19.9,51.2,20.1,50.9,20.4,50.8z"/>
	<path class="st77" d="M24.1,50.3c-0.4,0.3-0.8,0.5-1.3,0.7c-0.6,0.3-0.4-0.2-0.5-0.5c0.6,0,0.9-0.4,1-0.9c0.2-0.6,0.5-0.6,1-0.4
		c-0.1,0.3-0.2,0.5-0.2,0.8C24.2,50.1,24.2,50.1,24.1,50.3C24.2,50.2,24.1,50.3,24.1,50.3z"/>
	<path class="st101" d="M29.7,47.5c-0.3,0.4-0.4,1.2-1.3,1c-0.1-0.1-0.1-0.1-0.1-0.2c0-0.1,0-0.1,0.1-0.1c0,0,0,0,0,0
		c0.3-0.5,0.4-1.2,1.3-1C29.7,47.3,29.7,47.4,29.7,47.5z"/>
	<path class="st102" d="M20.1,52.3c0.5-0.9,1.5-0.7,2.3-0.8c0,0.7-1.1,0.5-1,1.3c-0.3,0.1-0.7,0.2-1,0.3c-0.2,0-0.3-0.1-0.4-0.3
		C19.9,52.6,20,52.4,20.1,52.3z"/>
	<path class="st103" d="M28.4,48.3c0,0.1,0,0.2,0,0.3c0.1,0.3,0.2,0.7,0.3,1c-0.2,0-0.3,0-0.5,0c-0.8,0.2-1.6,0.4-2.4,0.7
		c-0.4,0.1-0.6,0.4-0.6,0.8c-0.4,0-0.7-0.1-1-0.2c0-0.2,0-0.3,0-0.5c0-0.1,0-0.2,0-0.3C25.8,50,27.2,49.3,28.4,48.3z"/>
	<path class="st104" d="M11.3,54.8c0.3,0,0.5,0,0.8,0c0.4-0.2,0.8-0.1,1.3-0.1c0.6,0.1,1.3-0.3,1.7,0.4c-0.1,0.2-0.3,0.2-0.5,0.3
		c-1.1,0-2,0.8-3.1,0.7c-0.4,0-1.2,0.3-0.4,1c-0.3,0-0.7,0-1,0c-0.8-0.7-1.3,0.3-2,0.3c0-0.2,0-0.3,0-0.5c-0.1-0.1-0.2-0.3-0.1-0.5
		c0.6-0.6,1.3-0.8,2.1-0.9C10.5,55.3,10.9,55,11.3,54.8z"/>
	<path class="st35" d="M15.1,55c-0.6-0.3-1.2,0.1-1.8-0.3c-0.1-0.4,0.1-0.6,0.4-0.7c2-0.5,3.6-2,5.6-2.6c0.3-0.1,0.6-0.2,0.8,0
		c0,0.3,0,0.5,0,0.8c0,0.2,0,0.3,0,0.5C20,52.9,19.8,53,19.6,53c-1.4,0.4-2.7,1.2-4.1,1.7C15.5,55,15.3,55,15.1,55z"/>
	<path class="st105" d="M19.6,52.8c0.2,0,0.3,0,0.5,0c0.1,0.1,0.2,0.2,0.3,0.3c-0.4,0.9-1.5,0.7-2,1.4c0.2,0.1,0.3,0.3,0.5,0.4
		c-0.3,0-0.6,0-0.8,0.3c-0.7-0.1-1.3,0-2,0.3c0-0.2,0-0.3,0-0.5C17.3,54.1,18.5,53.5,19.6,52.8z"/>
	<path class="st106" d="M19.6,52.8c-1,1-2.1,1.8-3.5,2c-0.2,0-0.3,0-0.5,0c0.1-0.2,0.2-0.4,0.4-0.5C17.3,54,18.2,52.9,19.6,52.8z"/>
	<path class="st87" d="M8,53.8c0,0.7-0.9,0.4-1,1c-0.4,0-0.8,0-1.3,0C6.4,54.1,7.2,53.9,8,53.8z"/>
	<path class="st14" d="M7.5,54.8c0.3,0,0.7,0,1,0l0,0c0.1,0.5-0.3,0.7-0.4,1.1c-0.5,0.5-1.2,0.7-1.8,0.9c-0.2,0-0.3,0-0.5,0
		c-0.1,0-0.2,0-0.3,0c0.2-0.6,0.4-1.2,1.2-1.3C7.1,55.5,7.4,55.1,7.5,54.8z"/>
	<path class="st52" d="M6.3,56.8c0.5-0.5,1-0.9,1.8-1c0.1,0.2,0.2,0.3,0,0.5c0,0.2,0,0.3,0,0.5C7.5,56.8,6.9,56.8,6.3,56.8z"/>
	<path class="st52" d="M20.1,51.5c-2.3,0.6-4.1,2.3-6.5,2.9c-0.1,0-0.2,0.2-0.3,0.4c-0.4,0.2-0.8,0.2-1.3,0
		c-0.1-0.5,0.2-0.7,0.7-0.9c1-0.4,1.9-0.8,2.9-1.1c0.3-0.1,0.4-0.2,0.5-0.5c1-0.6,2.3-0.5,3.2-1.4c0.2-0.2,0.7-0.1,1.1-0.1
		C20.3,51,20.2,51.3,20.1,51.5z"/>
	<path class="st107" d="M8,56.3c0-0.2,0-0.3,0-0.5c-0.1-0.5,0.2-0.7,0.5-1c0.9,0.4,1.8-0.1,2.8,0C10.6,56.1,9.1,55.6,8,56.3z"/>
</g>
</svg>
